<svg aria-hidden="true" style="width:0;height:0;position:absolute;overflow:hidden" xmlns="http://www.w3.org/2000/svg"><defs><symbol id="advantages-1" viewBox="0 0 32 32"><path fill="#bddbff" style="fill:var(--color1,#bddbff)" d="M9.312 17.6h-.07v.533c-.002-.18.022-.36.07-.533z"/><path fill="#27ace2" style="fill:var(--color2,#27ace2)" opacity=".8" d="M9.242 22.933v-7.467H6.004v8.533h3.238v-1.067zM21.655 11.2c0 2.357-1.933 4.267-4.317 4.267s-4.317-1.91-4.317-4.267 1.933-4.267 4.317-4.267c2.385 0 4.317 1.91 4.317 4.267zM9.782.533h12.952c1.192 0 2.159.955 2.159 2.133v2.133H7.623V2.666c0-1.178.967-2.133 2.159-2.133zM7.623 26.133h17.27v3.2c0 1.178-.967 2.133-2.159 2.133H9.782c-1.192 0-2.159-.955-2.159-2.133v-3.2z"/><path fill="#0060aa" style="fill:var(--color3,#0060aa)" d="M8.163 5.333h14.032V4.266H8.163v-1.6c0-.884.725-1.6 1.619-1.6h12.952a1.61 1.61 0 0 1 1.619 1.6v4.8h1.079v-4.8C25.43 1.194 24.223.001 22.734-.001H9.782c-1.49.002-2.697 1.195-2.698 2.667v6.933h1.079V5.332zM24.353 25.6H10.321v1.067h14.032v2.667c0 .884-.725 1.6-1.619 1.6H9.782a1.61 1.61 0 0 1-1.619-1.6v-3.733H7.084v3.733c.002 1.472 1.209 2.665 2.698 2.667h12.952c1.49-.002 2.697-1.195 2.698-2.667v-5.867h-1.079V25.6z"/><path fill="#0060aa" style="fill:var(--color3,#0060aa)" d="M15.718 28.267h1.079v1.067h-1.079v-1.067zM11.941 2.133h1.079V3.2h-1.079V2.133zM14.099 2.133h1.079V3.2h-1.079V2.133zM9.242 6.933v2.133h1.079v-1.6h1.619V6.399H9.781a.537.537 0 0 0-.54.533zM7.083 17.067h1.079v1.067H7.083v-1.067z"/><path fill="#0060aa" style="fill:var(--color3,#0060aa)" d="M26.748 14.7a2.726 2.726 0 0 0-3.818 0l-2.849 2.816a1.666 1.666 0 0 0-1.124-.45h-2.924a2.695 2.695 0 0 0-2.473-1.6h-2.159a2.72 2.72 0 0 0-1.619.533v-.533a.537.537 0 0 0-.54-.533H6.004a.537.537 0 0 0-.54.533v8.533c0 .295.242.533.54.533h3.238c.298 0 .54-.239.54-.533v-.533h8.635c.143 0 .28-.056.382-.156l7.95-7.856a.528.528 0 0 0 0-.754zM8.702 23.467H6.543V16h2.159v7.467zm9.491-1.067H9.782v-4.267a1.405 1.405 0 0 1 .049-.382c0-.006 0-.013.005-.019a1.61 1.61 0 0 1 1.566-1.198h2.159a1.61 1.61 0 0 1 1.565 1.198.54.54 0 0 0 .524.402h3.308a.558.558 0 0 1 .333.116c.087.066.15.159.18.264 0 .006.006.011.007.017a.522.522 0 0 1-.145.517.523.523 0 0 1-.374.154h-5.936v1.067h5.936a1.619 1.619 0 0 0 1.619-1.6c0-.041-.007-.081-.01-.122l3.13-3.091a1.674 1.674 0 0 1 1.845-.313l-7.347 7.258z"/><path fill="#0060aa" style="fill:var(--color3,#0060aa)" d="M16.798 8v.631c-.743.259-1.189 1.009-1.055 1.776s.807 1.327 1.595 1.326c.298 0 .54.239.54.533s-.242.533-.54.533a.537.537 0 0 1-.54-.533h-1.079a1.603 1.603 0 0 0 1.079 1.502v.631h1.079v-.631c.743-.259 1.189-1.009 1.055-1.776s-.807-1.327-1.595-1.326c-.298 0-.54-.239-.54-.533s.242-.533.54-.533c.298 0 .54.239.54.533h1.079a1.603 1.603 0 0 0-1.079-1.502V8h-1.079z"/><path fill="#0060aa" style="fill:var(--color3,#0060aa)" d="M12.48 11.2c0 2.651 2.175 4.8 4.857 4.8s4.857-2.149 4.857-4.8-2.175-4.8-4.857-4.8c-2.681.003-4.854 2.15-4.857 4.8zm8.635 0c0 2.062-1.691 3.733-3.778 3.733s-3.778-1.671-3.778-3.733c0-2.062 1.691-3.733 3.778-3.733 2.085.002 3.775 1.672 3.778 3.733z"/></symbol><symbol id="advantages-2" viewBox="0 0 33 32"><path fill="#27ace2" style="fill:var(--color2,#27ace2)" opacity=".8" d="M7.918.533h13.105c1.206 0 2.184.955 2.184 2.133v2.133H5.734V2.666c0-1.178.978-2.133 2.184-2.133zM5.733 26.133h17.473v3.2c0 1.178-.978 2.133-2.184 2.133H7.917c-1.206 0-2.184-.955-2.184-2.133v-3.2z"/><path fill="#0060aa" style="fill:var(--color3,#0060aa)" d="M22.66 25.6H8.463v1.067H22.66v2.667c0 .884-.733 1.6-1.638 1.6H7.917c-.905 0-1.638-.716-1.638-1.6v-24h14.197V4.267H6.279v-1.6c0-.884.733-1.6 1.638-1.6h13.105c.905 0 1.638.716 1.638 1.6V8h1.092V2.667C23.75 1.195 22.529.002 21.022 0H7.917C6.41.002 5.189 1.195 5.187 2.667v26.667c.002 1.472 1.223 2.665 2.73 2.667h13.105c1.507-.002 2.728-1.195 2.73-2.667v-5.867H22.66V25.6z"/><path fill="#0060aa" style="fill:var(--color3,#0060aa)" d="M13.924 28.267h1.092v1.067h-1.092v-1.067zM10.102 2.133h1.092V3.2h-1.092V2.133zM12.286 2.133h1.092V3.2h-1.092V2.133zM7.371 6.933v2.133h1.092v-1.6h1.638V6.399H7.917a.54.54 0 0 0-.546.533z"/><path fill="#27ace2" style="fill:var(--color2,#27ace2)" opacity=".8" d="m24.331 12.677 1.229-1.206-1.54-1.504-1.234 1.2a5.914 5.914 0 0 0-2.31-.938V8.533h-2.184v1.696a5.95 5.95 0 0 0-2.31.938l-1.234-1.2-1.54 1.504 1.229 1.206a5.64 5.64 0 0 0-.961 2.256H11.74v2.133h1.736a5.64 5.64 0 0 0 .961 2.256l-1.229 1.206 1.54 1.504 1.234-1.2a5.93 5.93 0 0 0 2.31.939v1.696h2.184v-1.696a5.937 5.937 0 0 0 2.31-.939l1.234 1.2 1.54-1.504-1.229-1.206a5.64 5.64 0 0 0 .961-2.256h1.736v-2.133h-1.736a5.646 5.646 0 0 0-.961-2.256zm-4.947 5.99c-1.508 0-2.73-1.194-2.73-2.667s1.222-2.667 2.73-2.667 2.73 1.194 2.73 2.667-1.222 2.667-2.73 2.667z"/><path fill="#0060aa" style="fill:var(--color3,#0060aa)" d="M19.316 12.667c-1.809 0-3.276 1.433-3.276 3.2s1.467 3.2 3.276 3.2c1.809 0 3.276-1.433 3.276-3.2-.002-1.767-1.467-3.198-3.276-3.2zm0 5.333c-1.206 0-2.184-.955-2.184-2.133s.978-2.133 2.184-2.133c1.206 0 2.184.955 2.184 2.133S20.522 18 19.316 18z"/><path fill="#0060aa" style="fill:var(--color3,#0060aa)" d="M27.029 14.4h-1.297a6.151 6.151 0 0 0-.703-1.651l.919-.901a.525.525 0 0 0 0-.753l-1.54-1.504a.554.554 0 0 0-.771 0l-.921.896a6.42 6.42 0 0 0-1.693-.687V8.533A.54.54 0 0 0 20.477 8h-2.184a.54.54 0 0 0-.546.533V9.8a6.428 6.428 0 0 0-1.69.687l-.923-.897a.554.554 0 0 0-.771 0l-1.54 1.504a.524.524 0 0 0 0 .753l.918.901a6.146 6.146 0 0 0-.704 1.652H11.74a.54.54 0 0 0-.546.533v2.133a.54.54 0 0 0 .546.533h1.297c.151.582.388 1.138.703 1.653l-.918.901a.524.524 0 0 0 0 .753l1.54 1.504a.554.554 0 0 0 .771 0l.923-.897a6.43 6.43 0 0 0 1.691.685v1.267a.54.54 0 0 0 .546.533h2.184a.54.54 0 0 0 .546-.533v-1.267a6.448 6.448 0 0 0 1.693-.687l.923.897a.554.554 0 0 0 .771 0l1.54-1.504a.525.525 0 0 0 0-.753l-.92-.9a6.118 6.118 0 0 0 .703-1.653h1.297a.54.54 0 0 0 .546-.533v-2.133a.54.54 0 0 0-.546-.533zm-.546 2.133h-1.19a.543.543 0 0 0-.537.438 5.098 5.098 0 0 1-.874 2.047.523.523 0 0 0 .062.681l.847.828-.771.753-.848-.824a.554.554 0 0 0-.697-.06 5.363 5.363 0 0 1-2.095.853.538.538 0 0 0-.449.522v1.163h-1.092v-1.163a.537.537 0 0 0-.449-.525 5.363 5.363 0 0 1-2.095-.853.556.556 0 0 0-.697.06l-.848.827-.771-.753.844-.828a.524.524 0 0 0 .062-.681 5.11 5.11 0 0 1-.873-2.047.541.541 0 0 0-.534-.438h-1.19v-1.067h1.19c.264 0 .49-.185.537-.438a5.098 5.098 0 0 1 .874-2.047.523.523 0 0 0-.062-.681l-.847-.828.771-.753.848.824c.187.182.48.208.697.06a5.363 5.363 0 0 1 2.095-.853.538.538 0 0 0 .449-.522V9.065h1.092v1.163c0 .258.189.479.449.525a5.363 5.363 0 0 1 2.095.853c.217.147.51.122.697-.06l.848-.827.771.753-.844.828a.525.525 0 0 0-.062.681 5.11 5.11 0 0 1 .873 2.047.541.541 0 0 0 .534.438h1.19v1.067z"/></symbol><symbol id="advantages-3" viewBox="0 0 33 32"><path fill="#27ace2" style="fill:var(--color2,#27ace2)" opacity=".8" d="M9.968.533h13.027c1.199 0 2.171.955 2.171 2.133v2.133H7.797V2.666c0-1.178.972-2.133 2.171-2.133zM7.797 26.133h17.369v3.2c0 1.178-.972 2.133-2.171 2.133H9.968c-1.199 0-2.171-.955-2.171-2.133v-3.2z"/><path fill="#0060aa" style="fill:var(--color3,#0060aa)" d="M8.34 5.333h14.112V4.266H8.34v-1.6c0-.884.729-1.6 1.628-1.6h13.027c.899 0 1.628.716 1.628 1.6v4.8h1.086v-4.8c-.002-1.472-1.216-2.665-2.714-2.667H9.968C8.47.001 7.256 1.194 7.254 2.666v6.933H8.34V5.332zM24.623 25.6H10.511v1.067h14.112v2.667c0 .884-.729 1.6-1.628 1.6H9.968c-.899 0-1.628-.716-1.628-1.6v-3.733H7.254v3.733c.002 1.472 1.216 2.665 2.714 2.667h13.027c1.498-.002 2.712-1.195 2.714-2.667v-5.867h-1.086V25.6z"/><path fill="#0060aa" style="fill:var(--color3,#0060aa)" d="M15.939 28.267h1.086v1.067h-1.086v-1.067zM12.139 2.133h1.086V3.2h-1.086V2.133zM14.31 2.133h1.086V3.2H14.31V2.133zM9.425 6.933v2.133h1.086v-1.6h1.628V6.399H9.968c-.3 0-.543.239-.543.533z"/><path fill="#27ace2" style="fill:var(--color2,#27ace2)" opacity=".8" d="M22.465 16.381c0 3.074-2.536 5.565-5.664 5.565s-5.664-2.492-5.664-5.565c0-3.074 2.536-5.565 5.664-5.565s5.664 2.492 5.664 5.565z"/><path fill="#0060aa" style="fill:var(--color3,#0060aa);stroke:var(--color3,#0060aa)" stroke="#0060aa" stroke-width=".381" d="M16.904 8.381c-4.489 0-8.142 3.588-8.142 8s3.652 8 8.142 8c4.49 0 8.142-3.588 8.142-8s-3.652-8-8.142-8zm0 15.304c-4.099 0-7.434-3.277-7.434-7.304s3.335-7.304 7.434-7.304 7.434 3.277 7.434 7.304-3.335 7.304-7.434 7.304z"/><path fill="#0060aa" style="fill:var(--color3,#0060aa)" d="M16.801 21.598c-.195 0-.354.155-.354.348s.159.348.354.348c3.318 0 6.018-2.653 6.018-5.913 0-.192-.158-.348-.354-.348s-.354.155-.354.348c0 2.877-2.382 5.217-5.31 5.217zM16.801 11.164c.195 0 .354-.155.354-.348s-.159-.348-.354-.348c-3.318 0-6.018 2.652-6.018 5.913 0 .192.159.348.354.348s.354-.155.354-.348c0-2.877 2.382-5.217 5.31-5.217z"/><path fill="#0060aa" style="fill:var(--color3,#0060aa);stroke:var(--color3,#0060aa)" stroke="#0060aa" stroke-width=".381" d="m13.047 19.578-.499.49a.344.344 0 0 0 0 .492.357.357 0 0 0 .501 0l.499-.49c.138-.136.138-.356 0-.492s-.362-.136-.501 0zM20.306 13.285a.354.354 0 0 0 .25-.102l.499-.49c.138-.136.138-.356 0-.492s-.362-.136-.501 0l-.499.49a.344.344 0 0 0 0 .492c.07.068.16.102.25.102z"/><path fill="#0060aa" style="fill:var(--color3,#0060aa)" d="M16.354 13.333a.35.35 0 0 0-.354.348v3.478c0 .192.159.348.354.348h3.54c.196 0 .354-.155.354-.348s-.158-.348-.354-.348h-3.186v-3.13a.351.351 0 0 0-.354-.348z"/></symbol><symbol id="advantages-4" viewBox="0 0 33 32"><path fill="#27ace2" style="fill:var(--color2,#27ace2)" opacity=".8" d="M8.065.533h13.027c1.199 0 2.171.955 2.171 2.133v2.133H5.894V2.666c0-1.178.972-2.133 2.171-2.133zM5.894 26.133h17.369v3.2c0 1.178-.972 2.133-2.171 2.133H8.065c-1.199 0-2.171-.955-2.171-2.133v-3.2z"/><path fill="#0060aa" style="fill:var(--color3,#0060aa)" d="M22.721 25.6H8.609v1.067h14.112v2.667c0 .884-.729 1.6-1.628 1.6H8.066c-.899 0-1.628-.716-1.628-1.6v-24H20.55V4.267H6.438v-1.6c0-.884.729-1.6 1.628-1.6h13.027c.899 0 1.628.716 1.628 1.6V8h1.086V2.667C23.805 1.195 22.591.002 21.093 0H8.066C6.568.002 5.354 1.195 5.352 2.667v26.667c.002 1.472 1.216 2.665 2.714 2.667h13.027c1.498-.002 2.712-1.195 2.714-2.667v-5.867h-1.086V25.6z"/><path fill="#0060aa" style="fill:var(--color3,#0060aa)" d="M14.036 28.267h1.086v1.067h-1.086v-1.067zM10.237 2.133h1.086V3.2h-1.086V2.133zM12.408 2.133h1.086V3.2h-1.086V2.133zM7.523 6.933v2.133h1.086v-1.6h1.628V6.399H8.066c-.3 0-.543.239-.543.533z"/><path fill="#27ace2" style="fill:var(--color2,#27ace2)" opacity=".8" d="M22.536 16c0 2.025-1.671 3.666-3.731 3.666S15.074 18.024 15.074 16c0-2.025 1.671-3.666 3.731-3.666s3.731 1.642 3.731 3.666z"/><path fill="#0060aa" style="fill:var(--color3,#0060aa)" d="M26.85 13.522c-.208-.612-.714-.997-1.16-1.338-.239-.182-.464-.354-.596-.525s-.238-.428-.349-.701c-.205-.501-.437-1.069-.975-1.438-.53-.363-1.165-.396-1.726-.425-.315-.016-.612-.032-.841-.102-.209-.063-.449-.211-.704-.367-.478-.293-1.02-.625-1.694-.625-.675 0-1.217.333-1.696.627-.253.156-.493.303-.7.366-.228.07-.527.086-.844.103-.559.03-1.194.064-1.725.424-.538.369-.77.937-.975 1.438-.111.272-.217.529-.351.703-.131.169-.356.341-.595.524-.444.34-.948.725-1.158 1.333-.207.595-.042 1.183.102 1.701.08.287.156.559.156.781s-.076.494-.156.781c-.145.518-.309 1.105-.103 1.7.211.609.714.994 1.159 1.334.239.183.464.355.597.526s.238.427.349.699c.206.502.439 1.071.978 1.439.528.364 1.164.397 1.725.426.316.016.614.032.839.101.207.064.445.21.698.366.479.294 1.023.628 1.7.628s1.219-.333 1.698-.627c.254-.156.494-.303.702-.367.226-.069.523-.085.838-.101.561-.029 1.196-.063 1.726-.425.538-.369.77-.937.975-1.438.111-.272.217-.529.351-.703.13-.169.356-.341.594-.523.446-.34.952-.726 1.159-1.334.207-.595.042-1.183-.102-1.701-.08-.287-.156-.559-.156-.781s.076-.494.156-.781c.145-.518.309-1.105.104-1.697zm-1.412 3.613c.098.349.199.71.126.921-.078.229-.397.472-.706.708-.298.227-.606.462-.842.769-.245.315-.397.686-.53 1.013-.148.36-.287.7-.492.842-.212.145-.605.166-1.022.188-.385.02-.782.041-1.171.16-.375.115-.7.315-1.015.508-.357.219-.694.425-.981.425s-.624-.207-.981-.426c-.314-.193-.638-.392-1.012-.507-.389-.119-.787-.14-1.172-.16-.416-.022-.809-.042-1.02-.188-.208-.143-.348-.483-.496-.844-.14-.342-.285-.696-.528-1.008-.239-.309-.546-.545-.843-.772-.308-.236-.628-.479-.708-.711-.072-.207.029-.568.127-.917.096-.343.205-.732.205-1.134s-.109-.791-.205-1.134c-.098-.349-.199-.71-.127-.918.08-.231.399-.475.707-.71.297-.227.605-.463.841-.77.245-.315.397-.686.53-1.013.148-.36.287-.7.49-.84.213-.145.607-.165 1.024-.188.386-.021.784-.042 1.173-.16.375-.114.701-.315 1.017-.509.356-.22.691-.426.977-.426s.62.206.976.424c.318.195.646.396 1.02.509.388.119.786.14 1.171.159.417.022.81.042 1.021.187.206.142.346.482.493.842.134.327.285.698.528 1.01.238.309.546.544.844.771.308.235.628.479.707.711.072.207-.029.568-.127.917-.096.343-.205.732-.205 1.135s.109.791.205 1.134z"/><path fill="#0060aa" style="fill:var(--color3,#0060aa)" d="M21.857 16c0 1.654-1.369 3-3.053 3s-3.053-1.346-3.053-3 1.369-3 3.053-3h.678v-1.333h-.678c-2.432 0-4.41 1.944-4.41 4.333s1.978 4.333 4.41 4.333c2.431 0 4.41-1.944 4.41-4.333v-.667h-1.357V16z"/><path fill="#0060aa" style="fill:var(--color3,#0060aa)" d="m18.126 14.391-.959.943 1.638 1.609 3.673-3.609-.959-.943-2.714 2.667-.678-.667z"/></symbol><symbol id="attention" viewBox="0 0 32 32"><path fill="#aceba4" style="fill:var(--color4,#aceba4)" d="M16 0C7.164 0 0 7.164 0 16s7.164 16 16 16 16-7.164 16-16S24.836 0 16 0zm0 26.213c-1.251 0-2.107-.964-2.107-2.213 0-1.285.892-2.213 2.107-2.213 1.284 0 2.107.928 2.107 2.213 0 1.251-.823 2.213-2.107 2.213zm.829-8.452c-.319 1.087-1.323 1.105-1.657 0-.385-1.275-1.755-6.113-1.755-9.256 0-4.147 5.188-4.167 5.188 0-.001 3.161-1.444 8.125-1.776 9.256z"/></symbol><symbol id="burger" viewBox="0 0 48 32"><path d="M0 5.333V0h48v5.333H0zm0 13.334h48v-5.333H0v5.333zM0 32h48v-5.333H0V32z"/></symbol><symbol id="close" viewBox="0 0 32 32"><path d="M31.439 3.166 28.273 0 15.72 12.553 3.167 0 .001 3.166l12.553 12.553L.001 28.272l3.166 3.166L15.72 18.885l12.553 12.553 3.166-3.166-12.553-12.553L31.439 3.166z"/></symbol><symbol id="facebook" viewBox="0 0 20 32"><path d="M18.499 1.003 13.888.997c-5.18 0-8.527 2.953-8.527 7.524v3.469H.725c-.401 0-.725.279-.725.624v5.026c0 .344.325.623.725.623h4.636v12.683c0 .345.324.623.725.623h6.048c.401 0 .725-.279.725-.623V18.263h5.42c.401 0 .725-.279.725-.623l.002-5.026c0-.165-.077-.324-.212-.441s-.321-.183-.513-.183h-5.422V9.049c0-1.413.392-2.131 2.533-2.131l3.106-.001c.4 0 .725-.279.725-.623V1.627c0-.344-.324-.623-.724-.623z"/></symbol><symbol id="instagram" viewBox="0 0 30 32"><path d="M20.952 1.281H9.523c-5.259 0-9.524 4.265-9.524 9.524v11.428c0 5.259 4.265 9.524 9.524 9.524h11.429c5.259 0 9.524-4.265 9.524-9.524V10.805c0-5.259-4.265-9.524-9.524-9.524zm6.667 20.953a6.674 6.674 0 0 1-6.667 6.667H9.523a6.674 6.674 0 0 1-6.667-6.667V10.806a6.674 6.674 0 0 1 6.667-6.667h11.429a6.674 6.674 0 0 1 6.667 6.667v11.428z"/><path d="M15.238 8.9a7.619 7.619 0 1 0 0 15.238 7.619 7.619 0 0 0 0-15.238zm0 12.381a4.768 4.768 0 0 1-4.762-4.762c0-2.627 2.137-4.762 4.762-4.762S20 13.892 20 16.519a4.768 4.768 0 0 1-4.762 4.762zM23.429 9.344a1.015 1.015 0 1 0 0-2.03 1.015 1.015 0 0 0 0 2.03z"/></symbol><symbol id="mail" viewBox="0 0 43 32"><path fill="#27ace2" style="fill:var(--color2,#27ace2)" d="M37.333 2.091h-32c-2.2 0-4 1.548-4 3.439v20.636c0 1.892 1.8 3.439 4 3.439h32c2.2 0 4-1.548 4-3.439V5.53c0-1.892-1.8-3.439-4-3.439zm0 6.879-16 8.598-16-8.598V5.531l16 8.598 16-8.598V8.97z"/></symbol><symbol id="map" viewBox="0 0 27 32"><path fill="#27ace2" style="fill:var(--color2,#27ace2)" d="M13.714.983c-6.686 0-12 4.569-12 10.318 0 7.665 12 19.162 12 19.162s12-11.498 12-19.162c0-5.749-5.314-10.318-12-10.318zm0 14.003c-2.4 0-4.286-1.621-4.286-3.685s1.886-3.685 4.286-3.685c2.4 0 4.286 1.621 4.286 3.685s-1.886 3.685-4.286 3.685z"/></symbol><symbol id="polygon" viewBox="0 0 54 32"><path d="M27.2 32 .873.8h52.654L27.2 32z"/></symbol><symbol id="Polygon-2" viewBox="0 0 45 32"><path d="M22.667 2.573.728 29.815h43.879L22.668 2.573z"/></symbol><symbol id="smartphone" viewBox="0 0 20 32"><path d="M16.732 0H3.268A2.33 2.33 0 0 0 .939 2.331v27.34A2.328 2.328 0 0 0 3.268 32h13.464a2.33 2.33 0 0 0 2.329-2.329V2.331A2.33 2.33 0 0 0 16.732 0zM6.678 1.416h6.647c.168 0 .304.251.304.561s-.136.562-.304.562H6.678c-.169 0-.303-.252-.303-.562s.134-.561.303-.561zm3.323 28.283a1.487 1.487 0 0 1 0-2.974 1.486 1.486 0 0 1 0 2.974zm7.315-5.094H2.685V3.934h14.631v20.671z"/></symbol><symbol id="smartphone-blue" viewBox="0 0 21 32"><path fill="#27ace2" style="fill:var(--color2,#27ace2)" d="M17.847 1.826H3.486c-1.374 0-2.484.958-2.484 2.138V29.04c0 1.179 1.11 2.136 2.484 2.136h14.361c1.372 0 2.484-.957 2.484-2.136V3.964c0-1.18-1.112-2.138-2.484-2.138zM7.123 3.125h7.09c.179 0 .325.23.325.514s-.146.516-.325.516h-7.09c-.18 0-.323-.231-.323-.515s.143-.514.323-.514zm3.545 25.941c-.874 0-1.586-.612-1.586-1.365s.711-1.363 1.586-1.363c.872 0 1.583.61 1.583 1.363s-.711 1.365-1.583 1.365zm7.803-4.673H2.865V5.434h15.606v18.959z"/></symbol><symbol id="strelka" viewBox="0 0 55 32"><path fill="#374561" style="fill:var(--color7,#374561)" opacity=".4" d="M24.713 30.849 1.126 6.711a3.995 3.995 0 0 1 0-5.56 3.78 3.78 0 0 1 5.432 0l20.871 21.358 20.87-21.358c1.501-1.535 3.933-1.535 5.433 0s1.501 4.024 0 5.56L30.145 30.849c-.75.767-1.733 1.151-2.715 1.151s-1.966-.384-2.716-1.151z"/></symbol><symbol id="strelka-vpravo" viewBox="0 0 19 32"><path d="M18.509 17.584 4.026 31.343c-.921.876-2.415.876-3.336 0s-.921-2.294 0-3.169l12.815-12.175L.69 3.825C-.231 2.95-.231 1.531.69.656s2.415-.875 3.336 0l14.483 13.759c.46.438.69 1.011.69 1.584s-.23 1.147-.691 1.584z"/></symbol><symbol id="strelka-vverh" viewBox="0 0 23 32"><path fill="#374561" style="fill:var(--color7,#374561)" opacity=".3" d="m21.784 10.216-9.143-9.143A1.72 1.72 0 0 0 11.43.571l-.053.001a1.698 1.698 0 0 0-1.159.501l-9.143 9.143a1.715 1.715 0 0 0 2.424 2.424l6.216-6.216v23.29a1.714 1.714 0 0 0 3.428 0V6.424l6.216 6.216a1.715 1.715 0 0 0 2.424-2.424z"/></symbol><symbol id="tochki" viewBox="0 0 373 32"><path fill="#d4e4ef" style="fill:var(--color9,#d4e4ef)" d="M32 16c0 8.837-7.163 16-16 16S0 24.837 0 16 7.163 0 16 0s16 7.163 16 16zM117.333 16c0 8.837-7.163 16-16 16s-16-7.163-16-16 7.163-16 16-16 16 7.163 16 16zM202.667 16c0 8.837-7.163 16-16 16s-16-7.163-16-16 7.163-16 16-16 16 7.163 16 16zM288 16c0 8.837-7.163 16-16 16s-16-7.163-16-16 7.163-16 16-16 16 7.163 16 16zM373.333 16c0 8.837-7.163 16-16 16s-16-7.163-16-16 7.163-16 16-16 16 7.163 16 16z"/></symbol><symbol id="tochki-vpravo" viewBox="0 0 30 32"><path fill="#27ace2" style="fill:var(--color2,#27ace2)" d="M11.643 17.157c-.681-.885-.545-2.111.272-2.791.885-.681 2.111-.545 2.792.272.681.885.545 2.111-.272 2.792-.34.272-.817.409-1.226.409-.545.068-1.157-.204-1.566-.681zm-3.745-4.629c-.681-.885-.545-2.111.272-2.791.885-.681 2.111-.545 2.791.272.681.885.545 2.111-.272 2.792-.34.272-.817.409-1.226.409-.545 0-1.157-.204-1.566-.681zm-3.745-4.63c-.681-.885-.545-2.111.272-2.792.885-.681 2.111-.545 2.792.272.681.885.545 2.111-.272 2.792-.34.272-.817.477-1.226.477-.545-.068-1.157-.272-1.566-.749zM.408 3.2C-.273 2.383-.137 1.089.68.408c.885-.681 2.111-.545 2.792.272.681.885.545 2.111-.272 2.792-.34.34-.749.477-1.226.477-.545 0-1.157-.204-1.566-.749z"/><path fill="#27ace2" style="fill:var(--color2,#27ace2)" d="M13.209 13.889c.409 0 .885.136 1.226.409.885.681 1.021 1.906.272 2.792-.681.885-1.906 1.021-2.792.272-.885-.681-.953-1.906-.272-2.791.409-.409 1.021-.681 1.566-.681zm-3.745 4.63c.409 0 .885.136 1.226.409.885.681 1.021 1.906.272 2.791-.681.885-1.906 1.021-2.791.272-.885-.681-.953-1.906-.272-2.791.408-.409 1.021-.681 1.566-.681zm-3.745 4.63c.409 0 .885.136 1.226.477.885.681 1.021 1.906.272 2.791-.681.885-1.906.953-2.792.272s-.953-1.906-.272-2.791c.409-.477 1.021-.749 1.566-.749zm-3.745 4.63c.409 0 .885.136 1.226.477.885.681 1.021 1.906.272 2.791-.681.885-1.906.953-2.792.272s-.953-1.974-.272-2.791c.408-.477 1.021-.749 1.566-.749zM25.872 17.157c-.681-.885-.545-2.111.272-2.791.885-.681 2.111-.545 2.791.272.681.885.545 2.111-.272 2.792-.34.272-.817.409-1.226.409a1.71 1.71 0 0 1-1.566-.681zm-3.744-4.629c-.681-.885-.545-2.111.272-2.791.885-.681 2.111-.545 2.791.272.681.885.545 2.111-.272 2.792-.34.272-.817.409-1.226.409-.613 0-1.226-.204-1.566-.681zm-3.745-4.63c-.681-.885-.545-2.111.272-2.792.885-.681 2.111-.545 2.791.272.681.885.545 2.111-.272 2.792-.34.272-.817.477-1.226.477-.613-.068-1.157-.272-1.566-.749zM14.638 3.2c-.681-.817-.545-2.111.272-2.792.885-.681 2.111-.545 2.792.272.681.885.545 2.111-.272 2.792-.34.272-.817.477-1.226.477-.613 0-1.157-.204-1.566-.749z"/><path fill="#27ace2" style="fill:var(--color2,#27ace2)" d="M27.37 13.889c.409 0 .885.136 1.226.409.885.681 1.021 1.906.272 2.792-.681.885-1.906 1.021-2.791.272-.885-.681-.953-1.906-.272-2.791.409-.409 1.021-.681 1.566-.681zm-3.744 4.63c.409 0 .885.136 1.226.409.885.681 1.021 1.906.272 2.791-.681.885-1.906 1.021-2.791.272-.885-.681-.953-1.906-.272-2.791.409-.409 1.021-.681 1.566-.681zm-3.745 4.63c.409 0 .885.136 1.226.477.885.681 1.021 1.906.272 2.791-.681.885-1.906.953-2.791.272s-.953-1.906-.272-2.791c.477-.477 1.021-.749 1.566-.749zm-3.745 4.63c.409 0 .885.136 1.226.477.885.681 1.021 1.906.272 2.791-.681.885-1.906.953-2.791.272s-.953-1.974-.272-2.791c.477-.477 1.021-.749 1.566-.749z"/></symbol><symbol id="twitter" viewBox="0 0 43 32"><path d="M42.667 4.124a19.745 19.745 0 0 1-5.026 1.185c1.808-.931 3.191-2.407 3.847-4.161a19.464 19.464 0 0 1-5.562 1.827C34.329 1.51 32.057.598 29.538.598c-4.834 0-8.753 3.37-8.753 7.524 0 .589.077 1.165.227 1.715-7.273-.314-13.723-3.31-18.039-7.863a6.687 6.687 0 0 0-1.184 3.783c0 2.611 1.546 4.915 3.893 6.263a9.878 9.878 0 0 1-3.965-.944v.094c0 3.645 3.018 6.687 7.02 7.38-.733.17-1.506.264-2.306.264a9.704 9.704 0 0 1-1.648-.14c1.114 2.992 4.346 5.167 8.175 5.227-2.994 2.017-6.769 3.216-10.87 3.216A21.77 21.77 0 0 1 0 27.014C3.874 29.153 8.473 30.4 13.416 30.4c16.101 0 24.902-11.467 24.902-21.412l-.029-.974a16.378 16.378 0 0 0 4.378-3.888z"/></symbol><symbol id="vk" viewBox="0 0 58 32"><path d="M57.873 26.515a3.193 3.193 0 0 0-.197-.326c-1.009-1.563-2.938-3.482-5.786-5.757l-.06-.052-.03-.026-.031-.026h-.031c-1.292-1.059-2.111-1.772-2.454-2.136-.627-.695-.767-1.398-.425-2.11.242-.538 1.152-1.675 2.726-3.412.828-.92 1.484-1.658 1.969-2.214 3.494-3.994 5.009-6.546 4.544-7.658l-.18-.26c-.121-.156-.434-.299-.939-.43s-1.151-.152-1.939-.065l-8.724.052c-.141-.043-.343-.039-.606.013l-.394.078-.152.065-.12.078c-.101.052-.212.143-.333.273s-.221.282-.302.456a40.254 40.254 0 0 1-3.242 5.861c-.747 1.077-1.434 2.01-2.06 2.8s-1.151 1.372-1.575 1.745c-.424.373-.807.673-1.151.899s-.605.322-.787.287-.353-.07-.516-.104c-.282-.156-.51-.369-.681-.638s-.288-.608-.349-1.016c-.06-.408-.096-.76-.106-1.055s-.005-.712.015-1.25c.021-.539.03-.903.03-1.094 0-.66.015-1.376.045-2.149s.055-1.385.076-1.836c.021-.452.03-.929.03-1.433s-.036-.899-.106-1.185c-.07-.286-.176-.564-.317-.834s-.349-.477-.621-.625a3.825 3.825 0 0 0-1.015-.352c-1.071-.208-2.434-.321-4.09-.338-3.756-.035-6.17.174-7.24.625a4.048 4.048 0 0 0-1.151.781c-.364.382-.414.591-.152.625 1.212.156 2.07.53 2.575 1.12l.182.313c.142.226.283.625.424 1.198s.232 1.207.272 1.901c.101 1.268.101 2.353 0 3.256s-.197 1.606-.288 2.11-.227.912-.409 1.224c-.182.313-.303.504-.364.573s-.111.113-.151.13c-.263.086-.535.131-.818.131s-.626-.122-1.03-.365-.823-.577-1.257-1.003-.924-1.02-1.47-1.784a29.882 29.882 0 0 1-1.696-2.709l-.485-.756c-.303-.486-.717-1.194-1.242-2.123s-.99-1.828-1.394-2.696a1.767 1.767 0 0 0-.727-.833l-.152-.078c-.101-.069-.263-.143-.485-.221s-.454-.135-.697-.169l-8.3.052c-.848 0-1.424.165-1.727.495l-.121.156c-.061.087-.091.226-.091.417s.061.425.182.703c1.212 2.449 2.529 4.81 3.953 7.085s2.661 4.107 3.711 5.495c1.05 1.389 2.12 2.701 3.211 3.933s1.813 2.023 2.166 2.37c.354.348.631.608.833.781l.757.625c.485.417 1.196.916 2.136 1.498s1.979 1.155 3.12 1.72c1.141.564 2.469 1.024 3.984 1.38s2.989.499 4.423.43h3.484c.706-.052 1.242-.244 1.606-.573l.12-.131c.081-.104.157-.265.227-.481.071-.217.106-.456.106-.716-.021-.747.045-1.419.197-2.018s.323-1.05.516-1.354c.192-.304.409-.56.651-.768s.415-.334.516-.378c.101-.044.181-.073.241-.091.485-.139 1.055-.004 1.712.404s1.272.912 1.848 1.511c.576.599 1.267 1.272 2.075 2.018s1.515 1.302 2.12 1.667l.606.313c.405.209.93.4 1.576.573.645.174 1.21.217 1.696.13l7.755-.104c.767 0 1.364-.109 1.787-.326.424-.217.676-.456.758-.716s.086-.556.015-.886c-.072-.329-.143-.56-.213-.69z"/></symbol><symbol id="call-1" viewBox="0 0 32 32"><path d="M22 20c-2 2-2 4-4 4s-4-2-6-4-4-4-4-6 2-2 4-4-4-8-6-8-6 6-6 6c0 4 4.109 12.109 8 16s12 8 16 8c0 0 6-4 6-6s-6-8-8-6z"/></symbol><symbol id="call-2" viewBox="0 0 32 32"><path d="M27.281 4.65C24.287 1.65 20.306 0 16.062 0 7.324 0 .212 7.112.212 15.856c0 2.794.731 5.525 2.119 7.925L.081 32l8.406-2.206a15.858 15.858 0 0 0 7.575 1.931h.006c8.738 0 15.856-7.113 15.856-15.856 0-4.238-1.65-8.219-4.644-11.219zm-11.212 24.4a13.17 13.17 0 0 1-6.713-1.837l-.481-.288-4.987 1.306 1.331-4.863-.313-.5a13.086 13.086 0 0 1-2.019-7.012c0-7.269 5.912-13.181 13.188-13.181 3.519 0 6.831 1.375 9.319 3.862a13.108 13.108 0 0 1 3.856 9.325c-.006 7.275-5.919 13.188-13.181 13.188zm7.225-9.875c-.394-.2-2.344-1.156-2.706-1.288s-.625-.2-.894.2c-.262.394-1.025 1.288-1.256 1.556-.231.262-.462.3-.856.1s-1.675-.619-3.188-1.969c-1.175-1.05-1.975-2.35-2.206-2.744s-.025-.613.175-.806c.181-.175.394-.463.594-.694s.262-.394.394-.662c.131-.262.069-.494-.031-.694s-.894-2.15-1.219-2.944c-.319-.775-.65-.669-.894-.681-.231-.012-.494-.012-.756-.012s-.694.1-1.056.494c-.363.394-1.387 1.356-1.387 3.306s1.419 3.831 1.619 4.1c.2.262 2.794 4.269 6.769 5.981.944.406 1.681.65 2.256.837.95.3 1.813.256 2.494.156.762-.113 2.344-.956 2.675-1.881s.331-1.719.231-1.881c-.094-.175-.356-.275-.756-.475z"/></symbol><symbol id="call1" viewBox="0 0 32 32"><path d="M22 20c-2 2-2 4-4 4s-4-2-6-4-4-4-4-6 2-2 4-4-4-8-6-8-6 6-6 6c0 4 4.109 12.109 8 16s12 8 16 8c0 0 6-4 6-6s-6-8-8-6z"/></symbol><symbol id="clock2" viewBox="0 0 32 32"><path d="M16 0C7.163 0 0 7.163 0 16s7.163 16 16 16 16-7.163 16-16S24.837 0 16 0zm4.586 23.414L14 16.828V8h4v7.172l5.414 5.414-2.829 2.829z"/></symbol><symbol id="mail4" viewBox="0 0 32 32"><path d="M16 0C7.163 0 0 7.163 0 16s7.163 16 16 16 16-7.163 16-16S24.837 0 16 0zM8 8h16c.286 0 .563.061.817.177L16 18.463 7.183 8.176c.254-.116.531-.177.817-.177zM6 22V10c0-.042.002-.084.004-.125l5.864 6.842-5.8 5.8A1.983 1.983 0 0 1 5.999 22zm18 2H8c-.177 0-.35-.024-.517-.069l5.691-5.691L16 21.537l2.826-3.297 5.691 5.691c-.167.045-.34.069-.517.069zm2-2c0 .177-.024.35-.069.517l-5.8-5.8 5.865-6.842c.003.041.004.083.004.125v12z"/></symbol><symbol id="refresh" viewBox="0 0 32 32"><path d="M27.428 0c-.631 0-1.143.512-1.143 1.143v4.175C20.401-.378 11.013-.226 5.317 5.657A14.829 14.829 0 0 0 1.142 16a1.143 1.143 0 0 0 2.286 0C3.429 9.057 9.059 3.43 16.002 3.431a12.574 12.574 0 0 1 9.271 4.083L20.21 9.202a1.145 1.145 0 0 0 .722 2.172l6.857-2.286c.468-.156.783-.595.782-1.088V1.143C28.571.512 28.059 0 27.428 0zM29.714 14.857c-.631 0-1.143.512-1.143 1.143-.002 6.943-5.631 12.57-12.574 12.569a12.574 12.574 0 0 1-9.271-4.083l5.063-1.688a1.145 1.145 0 0 0-.722-2.172L4.21 22.912A1.144 1.144 0 0 0 3.428 24v6.857a1.143 1.143 0 0 0 2.286 0v-4.175c5.884 5.696 15.272 5.544 20.968-.339A14.829 14.829 0 0 0 30.857 16c0-.631-.511-1.143-1.143-1.143z"/></symbol><symbol id="strelka-vlevo" viewBox="0 0 18 32"><path d="m.939 14.939 14-14A1.5 1.5 0 1 1 17.06 3.06L4.121 15.999 17.06 28.938a1.5 1.5 0 1 1-2.121 2.121l-14-14a1.5 1.5 0 0 1 0-2.121z"/></symbol><symbol id="checked" viewBox="0 0 32 32"><path d="M.369 17.231C.123 16.985 0 16.616 0 16.369s.123-.615.369-.862l1.723-1.723a1.19 1.19 0 0 1 1.723 0l.123.123 6.769 7.262a.596.596 0 0 0 .862 0L28.061 4.061h.123a1.19 1.19 0 0 1 1.723 0l1.723 1.723a1.19 1.19 0 0 1 0 1.723L11.938 27.938c-.246.246-.492.369-.862.369s-.615-.123-.862-.369L.614 17.6l-.246-.369z"/></symbol></defs></svg>