<svg width="22" height="22" viewBox="0 0 22 22" fill="none" xmlns="http://www.w3.org/2000/svg">
<g clip-path="url(#clip0_158_318)">
<path d="M14.1644 11.3516C13.9635 11.1507 13.9635 10.8493 14.1644 10.6484L21.6986 3.11416C21.8995 2.91324 22 2.61187 22 2.41096C22 2.21005 21.8995 1.90868 21.6986 1.70776L20.2922 0.30137C20.0913 0.100457 19.79 0 19.589 0C19.2877 0 19.0868 0.100457 18.8858 0.30137L11.3516 7.83562C11.1507 8.03653 10.8493 8.03653 10.6484 7.83562L3.11416 0.30137C2.91324 0.100457 2.61187 0 2.41096 0C2.21005 0 1.90868 0.100457 1.70776 0.30137L0.30137 1.70776C0.100457 1.90868 0 2.21005 0 2.41096C0 2.61187 0.100457 2.91324 0.30137 3.11416L7.83562 10.6484C8.03653 10.8493 8.03653 11.1507 7.83562 11.3516L0.30137 18.8858C0.100457 19.0868 0 19.3881 0 19.589C0 19.79 0.100457 20.0913 0.30137 20.2922L1.70776 21.6986C1.90868 21.8995 2.21005 22 2.41096 22C2.61187 22 2.91324 21.8995 3.11416 21.6986L10.6484 14.1644C10.8493 13.9635 11.1507 13.9635 11.3516 14.1644L18.8858 21.6986C19.0868 21.8995 19.3881 22 19.589 22C19.79 22 20.0913 21.8995 20.2922 21.6986L21.6986 20.2922C21.8995 20.0913 22 19.79 22 19.589C22 19.3881 21.8995 19.0868 21.6986 18.8858L14.1644 11.3516Z" fill="white"/>
</g>
<defs>
<clipPath id="clip0_158_318">
<rect width="22" height="22" fill="white"/>
</clipPath>
</defs>
</svg>
