<svg aria-hidden="true" style="position: absolute; width: 0; height: 0; overflow: hidden;" version="1.1" xmlns="http://www.w3.org/2000/svg" xmlns:xlink="http://www.w3.org/1999/xlink">
<defs>
<symbol id="advantages-1" viewBox="0 0 32 32">
<path fill="#bddbff" style="fill: var(--color1, #bddbff)" d="M9.312 17.6h-0.070v0.533c-0.002-0.18 0.022-0.36 0.070-0.533z"></path>
<path fill="#27ace2" style="fill: var(--color2, #27ace2)" opacity="0.8" d="M9.242 22.933v-7.467h-3.238v8.533h3.238v-1.067z"></path>
<path fill="#27ace2" style="fill: var(--color2, #27ace2)" opacity="0.8" d="M21.655 11.2c0 2.357-1.933 4.267-4.317 4.267s-4.317-1.91-4.317-4.267 1.933-4.267 4.317-4.267c2.385 0 4.317 1.91 4.317 4.267z"></path>
<path fill="#27ace2" style="fill: var(--color2, #27ace2)" opacity="0.8" d="M9.782 0.533h12.952c1.192 0 2.159 0.955 2.159 2.133v2.133h-17.27v-2.133c0-1.178 0.967-2.133 2.159-2.133z"></path>
<path fill="#27ace2" style="fill: var(--color2, #27ace2)" opacity="0.8" d="M7.623 26.133h17.27v3.2c0 1.178-0.967 2.133-2.159 2.133h-12.952c-1.192 0-2.159-0.955-2.159-2.133v-3.2z"></path>
<path fill="#0060aa" style="fill: var(--color3, #0060aa)" d="M8.163 5.333h14.032v-1.067h-14.032v-1.6c0-0.884 0.725-1.6 1.619-1.6h12.952c0.894 0 1.619 0.716 1.619 1.6v4.8h1.079v-4.8c-0.002-1.472-1.209-2.665-2.698-2.667h-12.952c-1.49 0.002-2.697 1.195-2.698 2.667v6.933h1.079v-4.267z"></path>
<path fill="#0060aa" style="fill: var(--color3, #0060aa)" d="M24.353 25.6h-14.032v1.067h14.032v2.667c0 0.884-0.725 1.6-1.619 1.6h-12.952c-0.894 0-1.619-0.716-1.619-1.6v-3.733h-1.079v3.733c0.002 1.472 1.209 2.665 2.698 2.667h12.952c1.49-0.002 2.697-1.195 2.698-2.667v-5.867h-1.079v2.133z"></path>
<path fill="#0060aa" style="fill: var(--color3, #0060aa)" d="M15.718 28.267h1.079v1.067h-1.079v-1.067z"></path>
<path fill="#0060aa" style="fill: var(--color3, #0060aa)" d="M11.941 2.133h1.079v1.067h-1.079v-1.067z"></path>
<path fill="#0060aa" style="fill: var(--color3, #0060aa)" d="M14.099 2.133h1.079v1.067h-1.079v-1.067z"></path>
<path fill="#0060aa" style="fill: var(--color3, #0060aa)" d="M9.242 6.933v2.133h1.079v-1.6h1.619v-1.067h-2.159c-0.298 0-0.54 0.239-0.54 0.533z"></path>
<path fill="#0060aa" style="fill: var(--color3, #0060aa)" d="M7.083 17.067h1.079v1.067h-1.079v-1.067z"></path>
<path fill="#0060aa" style="fill: var(--color3, #0060aa)" d="M26.748 14.7c-1.055-1.040-2.763-1.040-3.818 0l-2.849 2.816c-0.304-0.285-0.705-0.446-1.124-0.45h-2.924c-0.428-0.973-1.4-1.601-2.473-1.6h-2.159c-0.584 0-1.152 0.187-1.619 0.533v-0.533c0-0.294-0.242-0.533-0.54-0.533h-3.238c-0.298 0-0.54 0.239-0.54 0.533v8.533c0 0.295 0.242 0.533 0.54 0.533h3.238c0.298 0 0.54-0.239 0.54-0.533v-0.533h8.635c0.143 0 0.28-0.056 0.382-0.156l7.95-7.856c0.211-0.208 0.211-0.546 0-0.754zM8.702 23.467h-2.159v-7.467h2.159v7.467zM18.193 22.4h-8.411v-4.267c-0.001-0.129 0.015-0.258 0.049-0.382 0-0.006 0-0.013 0.005-0.019 0.183-0.706 0.828-1.2 1.566-1.198h2.159c0.738-0.001 1.382 0.492 1.565 1.198 0.061 0.236 0.277 0.402 0.524 0.402h3.308c0.121 0.002 0.237 0.042 0.333 0.116 0.087 0.066 0.15 0.159 0.18 0.264 0 0.006 0.006 0.011 0.007 0.017 0.014 0.044 0.021 0.091 0.020 0.137 0 0.144-0.060 0.281-0.165 0.38-0.098 0.099-0.234 0.155-0.374 0.154h-5.936v1.067h5.936c0.892-0.005 1.614-0.718 1.619-1.6 0-0.041-0.007-0.081-0.010-0.122l3.13-3.091c0.491-0.47 1.223-0.594 1.845-0.313l-7.347 7.258z"></path>
<path fill="#0060aa" style="fill: var(--color3, #0060aa)" d="M16.798 8v0.631c-0.743 0.259-1.189 1.009-1.055 1.776s0.807 1.327 1.595 1.326c0.298 0 0.54 0.239 0.54 0.533s-0.242 0.533-0.54 0.533c-0.298 0-0.54-0.239-0.54-0.533h-1.079c0.003 0.675 0.435 1.277 1.079 1.502v0.631h1.079v-0.631c0.743-0.259 1.189-1.009 1.055-1.776s-0.807-1.327-1.595-1.326c-0.298 0-0.54-0.239-0.54-0.533s0.242-0.533 0.54-0.533c0.298 0 0.54 0.239 0.54 0.533h1.079c-0.003-0.675-0.435-1.277-1.079-1.502v-0.631h-1.079z"></path>
<path fill="#0060aa" style="fill: var(--color3, #0060aa)" d="M12.48 11.2c0 2.651 2.175 4.8 4.857 4.8s4.857-2.149 4.857-4.8c0-2.651-2.175-4.8-4.857-4.8-2.681 0.003-4.854 2.15-4.857 4.8zM21.115 11.2c0 2.062-1.691 3.733-3.778 3.733s-3.778-1.671-3.778-3.733c0-2.062 1.691-3.733 3.778-3.733 2.085 0.002 3.775 1.672 3.778 3.733z"></path>
</symbol>
<symbol id="advantages-2" viewBox="0 0 33 32">
<path fill="#27ace2" style="fill: var(--color2, #27ace2)" opacity="0.8" d="M7.918 0.533h13.105c1.206 0 2.184 0.955 2.184 2.133v2.133h-17.473v-2.133c0-1.178 0.978-2.133 2.184-2.133z"></path>
<path fill="#27ace2" style="fill: var(--color2, #27ace2)" opacity="0.8" d="M5.733 26.133h17.473v3.2c0 1.178-0.978 2.133-2.184 2.133h-13.105c-1.206 0-2.184-0.955-2.184-2.133v-3.2z"></path>
<path fill="#0060aa" style="fill: var(--color3, #0060aa)" d="M22.66 25.6h-14.197v1.067h14.197v2.667c0 0.884-0.733 1.6-1.638 1.6h-13.105c-0.905 0-1.638-0.716-1.638-1.6v-24h14.197v-1.067h-14.197v-1.6c0-0.884 0.733-1.6 1.638-1.6h13.105c0.905 0 1.638 0.716 1.638 1.6v5.333h1.092v-5.333c-0.002-1.472-1.223-2.665-2.73-2.667h-13.105c-1.507 0.002-2.728 1.195-2.73 2.667v26.667c0.002 1.472 1.223 2.665 2.73 2.667h13.105c1.507-0.002 2.728-1.195 2.73-2.667v-5.867h-1.092v2.133z"></path>
<path fill="#0060aa" style="fill: var(--color3, #0060aa)" d="M13.924 28.267h1.092v1.067h-1.092v-1.067z"></path>
<path fill="#0060aa" style="fill: var(--color3, #0060aa)" d="M10.102 2.133h1.092v1.067h-1.092v-1.067z"></path>
<path fill="#0060aa" style="fill: var(--color3, #0060aa)" d="M12.286 2.133h1.092v1.067h-1.092v-1.067z"></path>
<path fill="#0060aa" style="fill: var(--color3, #0060aa)" d="M7.371 6.933v2.133h1.092v-1.6h1.638v-1.067h-2.184c-0.302 0-0.546 0.239-0.546 0.533z"></path>
<path fill="#27ace2" style="fill: var(--color2, #27ace2)" opacity="0.8" d="M24.331 12.677l1.229-1.206-1.54-1.504-1.234 1.2c-0.692-0.472-1.479-0.792-2.31-0.938v-1.696h-2.184v1.696c-0.83 0.147-1.618 0.467-2.31 0.938l-1.234-1.2-1.54 1.504 1.229 1.206c-0.483 0.675-0.811 1.445-0.961 2.256h-1.736v2.133h1.736c0.15 0.811 0.478 1.581 0.961 2.256l-1.229 1.206 1.54 1.504 1.234-1.2c0.692 0.472 1.479 0.792 2.31 0.939v1.696h2.184v-1.696c0.83-0.147 1.618-0.467 2.31-0.939l1.234 1.2 1.54-1.504-1.229-1.206c0.483-0.675 0.811-1.445 0.961-2.256h1.736v-2.133h-1.736c-0.15-0.811-0.478-1.58-0.961-2.256zM19.384 18.667c-1.508 0-2.73-1.194-2.73-2.667s1.222-2.667 2.73-2.667c1.508 0 2.73 1.194 2.73 2.667s-1.222 2.667-2.73 2.667z"></path>
<path fill="#0060aa" style="fill: var(--color3, #0060aa)" d="M19.316 12.667c-1.809 0-3.276 1.433-3.276 3.2s1.467 3.2 3.276 3.2c1.809 0 3.276-1.433 3.276-3.2-0.002-1.767-1.467-3.198-3.276-3.2zM19.316 18c-1.206 0-2.184-0.955-2.184-2.133s0.978-2.133 2.184-2.133c1.206 0 2.184 0.955 2.184 2.133s-0.978 2.133-2.184 2.133z"></path>
<path fill="#0060aa" style="fill: var(--color3, #0060aa)" d="M27.029 14.4h-1.297c-0.152-0.58-0.388-1.136-0.703-1.651l0.919-0.901c0.212-0.208 0.212-0.545 0-0.753l-1.54-1.504c-0.213-0.208-0.558-0.208-0.771 0l-0.921 0.896c-0.527-0.308-1.097-0.539-1.693-0.687v-1.267c0-0.294-0.244-0.533-0.546-0.533h-2.184c-0.302 0-0.546 0.239-0.546 0.533v1.267c-0.594 0.148-1.163 0.379-1.69 0.687l-0.923-0.897c-0.213-0.208-0.558-0.208-0.771 0l-1.54 1.504c-0.213 0.208-0.213 0.545 0 0.753l0.918 0.901c-0.315 0.515-0.552 1.071-0.704 1.652h-1.297c-0.302 0-0.546 0.239-0.546 0.533v2.133c0 0.294 0.245 0.533 0.546 0.533h1.297c0.151 0.582 0.388 1.138 0.703 1.653l-0.918 0.901c-0.213 0.208-0.213 0.545 0 0.753l1.54 1.504c0.213 0.208 0.558 0.208 0.771 0l0.923-0.897c0.527 0.307 1.097 0.538 1.691 0.685v1.267c0 0.294 0.244 0.533 0.546 0.533h2.184c0.302 0 0.546-0.239 0.546-0.533v-1.267c0.595-0.148 1.165-0.379 1.693-0.687l0.923 0.897c0.213 0.208 0.558 0.208 0.771 0l1.54-1.504c0.212-0.208 0.212-0.545 0-0.753l-0.92-0.9c0.315-0.515 0.552-1.072 0.703-1.653h1.297c0.302 0 0.546-0.239 0.546-0.533v-2.133c0-0.294-0.244-0.533-0.546-0.533zM26.483 16.533h-1.19c-0.264 0-0.49 0.185-0.537 0.438-0.136 0.736-0.434 1.434-0.874 2.047-0.151 0.212-0.125 0.498 0.062 0.681l0.847 0.828-0.771 0.753-0.848-0.824c-0.187-0.182-0.48-0.208-0.697-0.060-0.627 0.429-1.342 0.72-2.095 0.853-0.259 0.046-0.447 0.265-0.449 0.522v1.163h-1.092v-1.163c0-0.258-0.189-0.479-0.449-0.525-0.753-0.133-1.468-0.424-2.095-0.853-0.217-0.147-0.51-0.122-0.697 0.060l-0.848 0.827-0.771-0.753 0.844-0.828c0.186-0.183 0.213-0.469 0.062-0.681-0.439-0.613-0.737-1.311-0.873-2.047-0.047-0.253-0.271-0.437-0.534-0.438h-1.19v-1.067h1.19c0.264 0 0.49-0.185 0.537-0.438 0.136-0.736 0.434-1.434 0.874-2.047 0.151-0.212 0.125-0.498-0.062-0.681l-0.847-0.828 0.771-0.753 0.848 0.824c0.187 0.182 0.48 0.208 0.697 0.060 0.627-0.429 1.342-0.72 2.095-0.853 0.259-0.046 0.447-0.265 0.449-0.522v-1.163h1.092v1.163c0 0.258 0.189 0.479 0.449 0.525 0.753 0.133 1.468 0.424 2.095 0.853 0.217 0.147 0.51 0.122 0.697-0.060l0.848-0.827 0.771 0.753-0.844 0.828c-0.186 0.183-0.212 0.469-0.062 0.681 0.439 0.613 0.737 1.311 0.873 2.047 0.047 0.253 0.271 0.437 0.534 0.438h1.19v1.067z"></path>
</symbol>
<symbol id="advantages-3" viewBox="0 0 33 32">
<path fill="#27ace2" style="fill: var(--color2, #27ace2)" opacity="0.8" d="M9.968 0.533h13.027c1.199 0 2.171 0.955 2.171 2.133v2.133h-17.369v-2.133c0-1.178 0.972-2.133 2.171-2.133z"></path>
<path fill="#27ace2" style="fill: var(--color2, #27ace2)" opacity="0.8" d="M7.797 26.133h17.369v3.2c0 1.178-0.972 2.133-2.171 2.133h-13.027c-1.199 0-2.171-0.955-2.171-2.133v-3.2z"></path>
<path fill="#0060aa" style="fill: var(--color3, #0060aa)" d="M8.34 5.333h14.112v-1.067h-14.112v-1.6c0-0.884 0.729-1.6 1.628-1.6h13.027c0.899 0 1.628 0.716 1.628 1.6v4.8h1.086v-4.8c-0.002-1.472-1.216-2.665-2.714-2.667h-13.027c-1.498 0.002-2.712 1.195-2.714 2.667v6.933h1.086v-4.267z"></path>
<path fill="#0060aa" style="fill: var(--color3, #0060aa)" d="M24.623 25.6h-14.112v1.067h14.112v2.667c0 0.884-0.729 1.6-1.628 1.6h-13.027c-0.899 0-1.628-0.716-1.628-1.6v-3.733h-1.086v3.733c0.002 1.472 1.216 2.665 2.714 2.667h13.027c1.498-0.002 2.712-1.195 2.714-2.667v-5.867h-1.086v2.133z"></path>
<path fill="#0060aa" style="fill: var(--color3, #0060aa)" d="M15.939 28.267h1.086v1.067h-1.086v-1.067z"></path>
<path fill="#0060aa" style="fill: var(--color3, #0060aa)" d="M12.139 2.133h1.086v1.067h-1.086v-1.067z"></path>
<path fill="#0060aa" style="fill: var(--color3, #0060aa)" d="M14.31 2.133h1.086v1.067h-1.086v-1.067z"></path>
<path fill="#0060aa" style="fill: var(--color3, #0060aa)" d="M9.425 6.933v2.133h1.086v-1.6h1.628v-1.067h-2.171c-0.3 0-0.543 0.239-0.543 0.533z"></path>
<path fill="#27ace2" style="fill: var(--color2, #27ace2)" opacity="0.8" d="M22.465 16.381c0 3.074-2.536 5.565-5.664 5.565s-5.664-2.492-5.664-5.565c0-3.074 2.536-5.565 5.664-5.565s5.664 2.492 5.664 5.565z"></path>
<path fill="#0060aa" style="fill: var(--color3, #0060aa); stroke: var(--color3, #0060aa)" stroke="#0060aa" stroke-linejoin="miter" stroke-linecap="butt" stroke-miterlimit="4" stroke-width="0.381" d="M16.904 8.381c-4.489 0-8.142 3.588-8.142 8s3.652 8 8.142 8c4.49 0 8.142-3.588 8.142-8s-3.652-8-8.142-8zM16.904 23.685c-4.099 0-7.434-3.277-7.434-7.304s3.335-7.304 7.434-7.304c4.099 0 7.434 3.277 7.434 7.304s-3.335 7.304-7.434 7.304z"></path>
<path fill="#0060aa" style="fill: var(--color3, #0060aa)" d="M16.801 21.598c-0.195 0-0.354 0.155-0.354 0.348s0.159 0.348 0.354 0.348c3.318 0 6.018-2.653 6.018-5.913 0-0.192-0.158-0.348-0.354-0.348s-0.354 0.155-0.354 0.348c0 2.877-2.382 5.217-5.31 5.217z"></path>
<path fill="#0060aa" style="fill: var(--color3, #0060aa)" d="M16.801 11.164c0.195 0 0.354-0.155 0.354-0.348s-0.159-0.348-0.354-0.348c-3.318 0-6.018 2.652-6.018 5.913 0 0.192 0.159 0.348 0.354 0.348s0.354-0.155 0.354-0.348c0-2.877 2.382-5.217 5.31-5.217z"></path>
<path fill="#0060aa" style="fill: var(--color3, #0060aa); stroke: var(--color3, #0060aa)" stroke="#0060aa" stroke-linejoin="miter" stroke-linecap="butt" stroke-miterlimit="4" stroke-width="0.381" d="M13.047 19.578l-0.499 0.49c-0.138 0.136-0.138 0.356 0 0.492 0.069 0.068 0.16 0.102 0.251 0.102s0.181-0.034 0.25-0.102l0.499-0.49c0.138-0.136 0.138-0.356 0-0.492s-0.362-0.136-0.501 0z"></path>
<path fill="#0060aa" style="fill: var(--color3, #0060aa); stroke: var(--color3, #0060aa)" stroke="#0060aa" stroke-linejoin="miter" stroke-linecap="butt" stroke-miterlimit="4" stroke-width="0.381" d="M20.306 13.285c0.091 0 0.181-0.034 0.25-0.102l0.499-0.49c0.138-0.136 0.138-0.356 0-0.492s-0.362-0.136-0.501 0l-0.499 0.49c-0.138 0.136-0.138 0.356 0 0.492 0.070 0.068 0.16 0.102 0.25 0.102z"></path>
<path fill="#0060aa" style="fill: var(--color3, #0060aa)" d="M16.354 13.333c-0.195 0-0.354 0.155-0.354 0.348v3.478c0 0.192 0.159 0.348 0.354 0.348h3.54c0.196 0 0.354-0.155 0.354-0.348s-0.158-0.348-0.354-0.348h-3.186v-3.13c0-0.192-0.159-0.348-0.354-0.348z"></path>
</symbol>
<symbol id="advantages-4" viewBox="0 0 33 32">
<path fill="#27ace2" style="fill: var(--color2, #27ace2)" opacity="0.8" d="M8.065 0.533h13.027c1.199 0 2.171 0.955 2.171 2.133v2.133h-17.369v-2.133c0-1.178 0.972-2.133 2.171-2.133z"></path>
<path fill="#27ace2" style="fill: var(--color2, #27ace2)" opacity="0.8" d="M5.894 26.133h17.369v3.2c0 1.178-0.972 2.133-2.171 2.133h-13.027c-1.199 0-2.171-0.955-2.171-2.133v-3.2z"></path>
<path fill="#0060aa" style="fill: var(--color3, #0060aa)" d="M22.721 25.6h-14.112v1.067h14.112v2.667c0 0.884-0.729 1.6-1.628 1.6h-13.027c-0.899 0-1.628-0.716-1.628-1.6v-24h14.112v-1.067h-14.112v-1.6c0-0.884 0.729-1.6 1.628-1.6h13.027c0.899 0 1.628 0.716 1.628 1.6v5.333h1.086v-5.333c-0.002-1.472-1.216-2.665-2.714-2.667h-13.027c-1.498 0.002-2.712 1.195-2.714 2.667v26.667c0.002 1.472 1.216 2.665 2.714 2.667h13.027c1.498-0.002 2.712-1.195 2.714-2.667v-5.867h-1.086v2.133z"></path>
<path fill="#0060aa" style="fill: var(--color3, #0060aa)" d="M14.036 28.267h1.086v1.067h-1.086v-1.067z"></path>
<path fill="#0060aa" style="fill: var(--color3, #0060aa)" d="M10.237 2.133h1.086v1.067h-1.086v-1.067z"></path>
<path fill="#0060aa" style="fill: var(--color3, #0060aa)" d="M12.408 2.133h1.086v1.067h-1.086v-1.067z"></path>
<path fill="#0060aa" style="fill: var(--color3, #0060aa)" d="M7.523 6.933v2.133h1.086v-1.6h1.628v-1.067h-2.171c-0.3 0-0.543 0.239-0.543 0.533z"></path>
<path fill="#27ace2" style="fill: var(--color2, #27ace2)" opacity="0.8" d="M22.536 16c0 2.025-1.671 3.666-3.731 3.666s-3.731-1.642-3.731-3.666c0-2.025 1.671-3.666 3.731-3.666s3.731 1.642 3.731 3.666z"></path>
<path fill="#0060aa" style="fill: var(--color3, #0060aa)" d="M26.85 13.522c-0.208-0.612-0.714-0.997-1.16-1.338-0.239-0.182-0.464-0.354-0.596-0.525s-0.238-0.428-0.349-0.701c-0.205-0.501-0.437-1.069-0.975-1.438-0.53-0.363-1.165-0.396-1.726-0.425-0.315-0.016-0.612-0.032-0.841-0.102-0.209-0.063-0.449-0.211-0.704-0.367-0.478-0.293-1.020-0.625-1.694-0.625-0.675 0-1.217 0.333-1.696 0.627-0.253 0.156-0.493 0.303-0.7 0.366-0.228 0.070-0.527 0.086-0.844 0.103-0.559 0.030-1.194 0.064-1.725 0.424-0.538 0.369-0.77 0.937-0.975 1.438-0.111 0.272-0.217 0.529-0.351 0.703-0.131 0.169-0.356 0.341-0.595 0.524-0.444 0.34-0.948 0.725-1.158 1.333-0.207 0.595-0.042 1.183 0.102 1.701 0.080 0.287 0.156 0.559 0.156 0.781s-0.076 0.494-0.156 0.781c-0.145 0.518-0.309 1.105-0.103 1.7 0.211 0.609 0.714 0.994 1.159 1.334 0.239 0.183 0.464 0.355 0.597 0.526s0.238 0.427 0.349 0.699c0.206 0.502 0.439 1.071 0.978 1.439 0.528 0.364 1.164 0.397 1.725 0.426 0.316 0.016 0.614 0.032 0.839 0.101 0.207 0.064 0.445 0.21 0.698 0.366 0.479 0.294 1.023 0.628 1.7 0.628s1.219-0.333 1.698-0.627c0.254-0.156 0.494-0.303 0.702-0.367 0.226-0.069 0.523-0.085 0.838-0.101 0.561-0.029 1.196-0.063 1.726-0.425 0.538-0.369 0.77-0.937 0.975-1.438 0.111-0.272 0.217-0.529 0.351-0.703 0.13-0.169 0.356-0.341 0.594-0.523 0.446-0.34 0.952-0.726 1.159-1.334 0.207-0.595 0.042-1.183-0.102-1.701-0.080-0.287-0.156-0.559-0.156-0.781s0.076-0.494 0.156-0.781c0.145-0.518 0.309-1.105 0.104-1.697zM25.438 17.135c0.098 0.349 0.199 0.71 0.126 0.921-0.078 0.229-0.397 0.472-0.706 0.708-0.298 0.227-0.606 0.462-0.842 0.769-0.245 0.315-0.397 0.686-0.53 1.013-0.148 0.36-0.287 0.7-0.492 0.842-0.212 0.145-0.605 0.166-1.022 0.188-0.385 0.020-0.782 0.041-1.171 0.16-0.375 0.115-0.7 0.315-1.015 0.508-0.357 0.219-0.694 0.425-0.981 0.425s-0.624-0.207-0.981-0.426c-0.314-0.193-0.638-0.392-1.012-0.507-0.389-0.119-0.787-0.14-1.172-0.16-0.416-0.022-0.809-0.042-1.020-0.188-0.208-0.143-0.348-0.483-0.496-0.844-0.14-0.342-0.285-0.696-0.528-1.008-0.239-0.309-0.546-0.545-0.843-0.772-0.308-0.236-0.628-0.479-0.708-0.711-0.072-0.207 0.029-0.568 0.127-0.917 0.096-0.343 0.205-0.732 0.205-1.134s-0.109-0.791-0.205-1.134c-0.098-0.349-0.199-0.71-0.127-0.918 0.080-0.231 0.399-0.475 0.707-0.71 0.297-0.227 0.605-0.463 0.841-0.77 0.245-0.315 0.397-0.686 0.53-1.013 0.148-0.36 0.287-0.7 0.49-0.84 0.213-0.145 0.607-0.165 1.024-0.188 0.386-0.021 0.784-0.042 1.173-0.16 0.375-0.114 0.701-0.315 1.017-0.509 0.356-0.22 0.691-0.426 0.977-0.426s0.62 0.206 0.976 0.424c0.318 0.195 0.646 0.396 1.020 0.509 0.388 0.119 0.786 0.14 1.171 0.159 0.417 0.022 0.81 0.042 1.021 0.187 0.206 0.142 0.346 0.482 0.493 0.842 0.134 0.327 0.285 0.698 0.528 1.010 0.238 0.309 0.546 0.544 0.844 0.771 0.308 0.235 0.628 0.479 0.707 0.711 0.072 0.207-0.029 0.568-0.127 0.917-0.096 0.343-0.205 0.732-0.205 1.135s0.109 0.791 0.205 1.134z"></path>
<path fill="#0060aa" style="fill: var(--color3, #0060aa)" d="M21.857 16c0 1.654-1.369 3-3.053 3s-3.053-1.346-3.053-3c0-1.654 1.369-3 3.053-3h0.678v-1.333h-0.678c-2.432 0-4.41 1.944-4.41 4.333s1.978 4.333 4.41 4.333c2.431 0 4.41-1.944 4.41-4.333v-0.667h-1.357v0.667z"></path>
<path fill="#0060aa" style="fill: var(--color3, #0060aa)" d="M18.126 14.391l-0.959 0.943 1.638 1.609 3.673-3.609-0.959-0.943-2.714 2.667-0.678-0.667z"></path>
</symbol>
<symbol id="attention" viewBox="0 0 32 32">
<path fill="#aceba4" style="fill: var(--color4, #aceba4)" d="M16 0c-8.836 0-16 7.164-16 16s7.164 16 16 16c8.836 0 16-7.164 16-16s-7.164-16-16-16zM16 26.213c-1.251 0-2.107-0.964-2.107-2.213 0-1.285 0.892-2.213 2.107-2.213 1.284 0 2.107 0.928 2.107 2.213 0 1.251-0.823 2.213-2.107 2.213zM16.829 17.761c-0.319 1.087-1.323 1.105-1.657 0-0.385-1.275-1.755-6.113-1.755-9.256 0-4.147 5.188-4.167 5.188 0-0.001 3.161-1.444 8.125-1.776 9.256z"></path>
</symbol>
<symbol id="burger" viewBox="0 0 48 32">
<path d="M0 5.333v-5.333h48v5.333h-48zM0 18.667h48v-5.333h-48v5.333zM0 32h48v-5.333h-48v5.333z"></path>
</symbol>
<symbol id="close" viewBox="0 0 32 32">
<path d="M31.439 3.166l-3.166-3.166-12.553 12.553-12.553-12.553-3.166 3.166 12.553 12.553-12.553 12.553 3.166 3.166 12.553-12.553 12.553 12.553 3.166-3.166-12.553-12.553 12.553-12.553z"></path>
</symbol>
<symbol id="facebook" viewBox="0 0 20 32">
<path fill="#27ace2" style="fill: var(--color2, #27ace2)" d="M18.499 1.003l-4.611-0.006c-5.18 0-8.527 2.953-8.527 7.524v3.469h-4.636c-0.401 0-0.725 0.279-0.725 0.624v5.026c0 0.344 0.325 0.623 0.725 0.623h4.636v12.683c0 0.345 0.324 0.623 0.725 0.623h6.048c0.401 0 0.725-0.279 0.725-0.623v-12.683h5.42c0.401 0 0.725-0.279 0.725-0.623l0.002-5.026c0-0.165-0.077-0.324-0.212-0.441s-0.321-0.183-0.513-0.183h-5.422v-2.941c0-1.413 0.392-2.131 2.533-2.131l3.106-0.001c0.4 0 0.725-0.279 0.725-0.623v-4.667c0-0.344-0.324-0.623-0.724-0.623z"></path>
</symbol>
<symbol id="instagram" viewBox="0 0 30 32">
<path fill="#27ace2" style="fill: var(--color2, #27ace2)" d="M20.952 1.281h-11.429c-5.259 0-9.524 4.265-9.524 9.524v11.428c0 5.259 4.265 9.524 9.524 9.524h11.429c5.259 0 9.524-4.265 9.524-9.524v-11.428c0-5.259-4.265-9.524-9.524-9.524zM27.619 22.234c0 3.676-2.99 6.667-6.667 6.667h-11.429c-3.676 0-6.667-2.99-6.667-6.667v-11.428c0-3.676 2.99-6.667 6.667-6.667h11.429c3.676 0 6.667 2.99 6.667 6.667v11.428z"></path>
<path fill="#27ace2" style="fill: var(--color2, #27ace2)" d="M15.238 8.9c-4.208 0-7.619 3.411-7.619 7.619s3.411 7.619 7.619 7.619c4.208 0 7.619-3.411 7.619-7.619s-3.411-7.619-7.619-7.619zM15.238 21.281c-2.625 0-4.762-2.137-4.762-4.762 0-2.627 2.137-4.762 4.762-4.762s4.762 2.135 4.762 4.762c0 2.625-2.137 4.762-4.762 4.762z"></path>
<path fill="#27ace2" style="fill: var(--color2, #27ace2)" d="M23.429 9.344c0.561 0 1.015-0.455 1.015-1.015s-0.454-1.015-1.015-1.015c-0.561 0-1.015 0.455-1.015 1.015s0.455 1.015 1.015 1.015z"></path>
</symbol>
<symbol id="mail" viewBox="0 0 43 32">
<path fill="#27ace2" style="fill: var(--color2, #27ace2)" d="M37.333 2.091h-32c-2.2 0-4 1.548-4 3.439v20.636c0 1.892 1.8 3.439 4 3.439h32c2.2 0 4-1.548 4-3.439v-20.636c0-1.892-1.8-3.439-4-3.439zM37.333 8.97l-16 8.598-16-8.598v-3.439l16 8.598 16-8.598v3.439z"></path>
</symbol>
<symbol id="map" viewBox="0 0 27 32">
<path fill="#27ace2" style="fill: var(--color2, #27ace2)" d="M13.714 0.983c-6.686 0-12 4.569-12 10.318 0 7.665 12 19.162 12 19.162s12-11.498 12-19.162c0-5.749-5.314-10.318-12-10.318zM13.714 14.986c-2.4 0-4.286-1.621-4.286-3.685s1.886-3.685 4.286-3.685c2.4 0 4.286 1.621 4.286 3.685s-1.886 3.685-4.286 3.685z"></path>
</symbol>
<symbol id="polygon" viewBox="0 0 54 32">
<path fill="#27ace2" style="fill: var(--color2, #27ace2)" d="M27.2 32l-26.327-31.2h52.654l-26.327 31.2z"></path>
</symbol>
<symbol id="Polygon-2" viewBox="0 0 45 32">
<path fill="#27ace2" style="fill: var(--color1, #27ace2)" d="M22.667 2.573l-21.939 27.242h43.879l-21.939-27.242z"></path>
</symbol>
<symbol id="smartphone" viewBox="0 0 20 32">
<path d="M16.732 0h-13.464c-1.289 0-2.329 1.045-2.329 2.331v27.34c0 1.285 1.040 2.329 2.329 2.329h13.464c1.286 0 2.329-1.044 2.329-2.329v-27.34c0-1.286-1.042-2.331-2.329-2.331zM6.678 1.416h6.647c0.168 0 0.304 0.251 0.304 0.561s-0.136 0.562-0.304 0.562h-6.647c-0.169 0-0.303-0.252-0.303-0.562s0.134-0.561 0.303-0.561zM10.001 29.699c-0.82 0-1.487-0.667-1.487-1.488s0.667-1.486 1.487-1.486c0.817 0 1.484 0.665 1.484 1.486s-0.667 1.488-1.484 1.488zM17.316 24.605h-14.631v-20.671h14.631v20.671z"></path>
</symbol>
<symbol id="smartphone-blue" viewBox="0 0 21 32">
<path fill="#27ace2" style="fill: var(--color2, #27ace2)" d="M17.847 1.826h-14.361c-1.374 0-2.484 0.958-2.484 2.138v25.076c0 1.179 1.11 2.136 2.484 2.136h14.361c1.372 0 2.484-0.957 2.484-2.136v-25.076c0-1.18-1.112-2.138-2.484-2.138zM7.123 3.125h7.090c0.179 0 0.325 0.23 0.325 0.514s-0.146 0.516-0.325 0.516h-7.090c-0.18 0-0.323-0.231-0.323-0.515s0.143-0.514 0.323-0.514zM10.668 29.066c-0.874 0-1.586-0.612-1.586-1.365s0.711-1.363 1.586-1.363c0.872 0 1.583 0.61 1.583 1.363s-0.711 1.365-1.583 1.365zM18.471 24.393h-15.606v-18.959h15.606v18.959z"></path>
</symbol>
<symbol id="strelka" viewBox="0 0 55 32">
<path fill="#374561" style="fill: var(--color7, #374561)" opacity="0.4" d="M24.713 30.849l-23.587-24.138c-1.501-1.535-1.501-4.025 0-5.56 1.5-1.535 3.933-1.535 5.432 0l20.871 21.358 20.87-21.358c1.501-1.535 3.933-1.535 5.433 0s1.501 4.024 0 5.56l-23.587 24.138c-0.75 0.767-1.733 1.151-2.715 1.151s-1.966-0.384-2.716-1.151z"></path>
</symbol>
<symbol id="strelka-vpravo" viewBox="0 0 19 32">
<path fill="#1771b9" style="fill: var(--color8, #1771b9)" d="M18.509 17.584l-14.483 13.759c-0.921 0.876-2.415 0.876-3.336 0s-0.921-2.294 0-3.169l12.815-12.175-12.815-12.174c-0.921-0.875-0.921-2.294 0-3.169s2.415-0.875 3.336 0l14.483 13.759c0.46 0.438 0.69 1.011 0.69 1.584s-0.23 1.147-0.691 1.584z"></path>
</symbol>
<symbol id="strelka-vverh" viewBox="0 0 23 32">
<path fill="#374561" style="fill: var(--color7, #374561)" opacity="0.3" d="M21.784 10.216l-9.143-9.143c-0.168-0.168-0.363-0.294-0.57-0.378-0.18-0.072-0.369-0.113-0.559-0.122-0.027-0.001-0.055-0.002-0.082-0.002-0.018 0-0.036 0-0.053 0.001-0.209 0.006-0.409 0.050-0.593 0.125-0.206 0.084-0.399 0.209-0.566 0.376l-9.143 9.143c-0.669 0.669-0.669 1.755 0 2.424s1.755 0.669 2.424 0l6.216-6.216v23.29c0 0.947 0.768 1.714 1.714 1.714s1.714-0.768 1.714-1.714v-23.29l6.216 6.216c0.669 0.669 1.755 0.669 2.424 0s0.669-1.755 0-2.424z"></path>
</symbol>
<symbol id="tochki" viewBox="0 0 373 32">
<path fill="#d4e4ef" style="fill: var(--color9, #d4e4ef)" d="M32 16c0 8.837-7.163 16-16 16s-16-7.163-16-16c0-8.837 7.163-16 16-16s16 7.163 16 16z"></path>
<path fill="#d4e4ef" style="fill: var(--color9, #d4e4ef)" d="M117.333 16c0 8.837-7.163 16-16 16s-16-7.163-16-16c0-8.837 7.163-16 16-16s16 7.163 16 16z"></path>
<path fill="#d4e4ef" style="fill: var(--color9, #d4e4ef)" d="M202.667 16c0 8.837-7.163 16-16 16s-16-7.163-16-16c0-8.837 7.163-16 16-16s16 7.163 16 16z"></path>
<path fill="#d4e4ef" style="fill: var(--color9, #d4e4ef)" d="M288 16c0 8.837-7.163 16-16 16s-16-7.163-16-16c0-8.837 7.163-16 16-16s16 7.163 16 16z"></path>
<path fill="#d4e4ef" style="fill: var(--color9, #d4e4ef)" d="M373.333 16c0 8.837-7.163 16-16 16s-16-7.163-16-16c0-8.837 7.163-16 16-16s16 7.163 16 16z"></path>
</symbol>
<symbol id="tochki-vpravo" viewBox="0 0 30 32">
<path fill="#27ace2" style="fill: var(--color2, #27ace2)" d="M11.643 17.157c-0.681-0.885-0.545-2.111 0.272-2.791 0.885-0.681 2.111-0.545 2.792 0.272 0.681 0.885 0.545 2.111-0.272 2.792-0.34 0.272-0.817 0.409-1.226 0.409-0.545 0.068-1.157-0.204-1.566-0.681zM7.898 12.528c-0.681-0.885-0.545-2.111 0.272-2.791 0.885-0.681 2.111-0.545 2.791 0.272 0.681 0.885 0.545 2.111-0.272 2.792-0.34 0.272-0.817 0.409-1.226 0.409-0.545 0-1.157-0.204-1.566-0.681zM4.153 7.898c-0.681-0.885-0.545-2.111 0.272-2.792 0.885-0.681 2.111-0.545 2.792 0.272 0.681 0.885 0.545 2.111-0.272 2.792-0.34 0.272-0.817 0.477-1.226 0.477-0.545-0.068-1.157-0.272-1.566-0.749zM0.408 3.2c-0.681-0.817-0.545-2.111 0.272-2.792 0.885-0.681 2.111-0.545 2.792 0.272 0.681 0.885 0.545 2.111-0.272 2.792-0.34 0.34-0.749 0.477-1.226 0.477-0.545 0-1.157-0.204-1.566-0.749z"></path>
<path fill="#27ace2" style="fill: var(--color2, #27ace2)" d="M13.209 13.889c0.409 0 0.885 0.136 1.226 0.409 0.885 0.681 1.021 1.906 0.272 2.792-0.681 0.885-1.906 1.021-2.792 0.272-0.885-0.681-0.953-1.906-0.272-2.791 0.409-0.409 1.021-0.681 1.566-0.681zM9.464 18.519c0.409 0 0.885 0.136 1.226 0.409 0.885 0.681 1.021 1.906 0.272 2.791-0.681 0.885-1.906 1.021-2.791 0.272-0.885-0.681-0.953-1.906-0.272-2.791 0.408-0.409 1.021-0.681 1.566-0.681zM5.719 23.149c0.409 0 0.885 0.136 1.226 0.477 0.885 0.681 1.021 1.906 0.272 2.791-0.681 0.885-1.906 0.953-2.792 0.272s-0.953-1.906-0.272-2.791c0.409-0.477 1.021-0.749 1.566-0.749zM1.974 27.779c0.409 0 0.885 0.136 1.226 0.477 0.885 0.681 1.021 1.906 0.272 2.791-0.681 0.885-1.906 0.953-2.792 0.272s-0.953-1.974-0.272-2.791c0.408-0.477 1.021-0.749 1.566-0.749z"></path>
<path fill="#27ace2" style="fill: var(--color2, #27ace2)" d="M25.872 17.157c-0.681-0.885-0.545-2.111 0.272-2.791 0.885-0.681 2.111-0.545 2.791 0.272 0.681 0.885 0.545 2.111-0.272 2.792-0.34 0.272-0.817 0.409-1.226 0.409-0.613 0.068-1.226-0.204-1.566-0.681zM22.128 12.528c-0.681-0.885-0.545-2.111 0.272-2.791 0.885-0.681 2.111-0.545 2.791 0.272 0.681 0.885 0.545 2.111-0.272 2.792-0.34 0.272-0.817 0.409-1.226 0.409-0.613 0-1.226-0.204-1.566-0.681zM18.383 7.898c-0.681-0.885-0.545-2.111 0.272-2.792 0.885-0.681 2.111-0.545 2.791 0.272 0.681 0.885 0.545 2.111-0.272 2.792-0.34 0.272-0.817 0.477-1.226 0.477-0.613-0.068-1.157-0.272-1.566-0.749zM14.638 3.2c-0.681-0.817-0.545-2.111 0.272-2.792 0.885-0.681 2.111-0.545 2.792 0.272 0.681 0.885 0.545 2.111-0.272 2.792-0.34 0.272-0.817 0.477-1.226 0.477-0.613 0-1.157-0.204-1.566-0.749z"></path>
<path fill="#27ace2" style="fill: var(--color2, #27ace2)" d="M27.37 13.889c0.409 0 0.885 0.136 1.226 0.409 0.885 0.681 1.021 1.906 0.272 2.792-0.681 0.885-1.906 1.021-2.791 0.272-0.885-0.681-0.953-1.906-0.272-2.791 0.409-0.409 1.021-0.681 1.566-0.681zM23.626 18.519c0.409 0 0.885 0.136 1.226 0.409 0.885 0.681 1.021 1.906 0.272 2.791-0.681 0.885-1.906 1.021-2.791 0.272-0.885-0.681-0.953-1.906-0.272-2.791 0.409-0.409 1.021-0.681 1.566-0.681zM19.881 23.149c0.409 0 0.885 0.136 1.226 0.477 0.885 0.681 1.021 1.906 0.272 2.791-0.681 0.885-1.906 0.953-2.791 0.272s-0.953-1.906-0.272-2.791c0.477-0.477 1.021-0.749 1.566-0.749zM16.136 27.779c0.409 0 0.885 0.136 1.226 0.477 0.885 0.681 1.021 1.906 0.272 2.791-0.681 0.885-1.906 0.953-2.791 0.272s-0.953-1.974-0.272-2.791c0.477-0.477 1.021-0.749 1.566-0.749z"></path>
</symbol>
<symbol id="twitter" viewBox="0 0 43 32">
<path fill="#27ace2" style="fill: var(--color2, #27ace2)" d="M42.667 4.124c-1.57 0.598-3.255 1.004-5.026 1.185 1.808-0.931 3.191-2.407 3.847-4.161-1.696 0.862-3.567 1.488-5.562 1.827-1.597-1.465-3.869-2.377-6.388-2.377-4.834 0-8.753 3.37-8.753 7.524 0 0.589 0.077 1.165 0.227 1.715-7.273-0.314-13.723-3.31-18.039-7.863-0.755 1.11-1.184 2.403-1.184 3.783 0 2.611 1.546 4.915 3.893 6.263-1.434-0.041-2.784-0.381-3.965-0.944v0.094c0 3.645 3.018 6.687 7.020 7.38-0.733 0.17-1.506 0.264-2.306 0.264-0.565 0-1.112-0.048-1.648-0.14 1.114 2.992 4.346 5.167 8.175 5.227-2.994 2.017-6.769 3.216-10.87 3.216-0.707 0-1.402-0.037-2.088-0.103 3.874 2.139 8.473 3.386 13.416 3.386 16.101 0 24.902-11.467 24.902-21.412l-0.029-0.974c1.72-1.055 3.207-2.38 4.378-3.888z"></path>
</symbol>
<symbol id="vk" viewBox="0 0 58 32">
<path fill="#27ace2" style="fill: var(--color2, #27ace2)" d="M57.873 26.515c-0.070-0.131-0.136-0.239-0.197-0.326-1.009-1.563-2.938-3.482-5.786-5.757l-0.060-0.052-0.030-0.026-0.031-0.026h-0.031c-1.292-1.059-2.111-1.772-2.454-2.136-0.627-0.695-0.767-1.398-0.425-2.11 0.242-0.538 1.152-1.675 2.726-3.412 0.828-0.92 1.484-1.658 1.969-2.214 3.494-3.994 5.009-6.546 4.544-7.658l-0.18-0.26c-0.121-0.156-0.434-0.299-0.939-0.43s-1.151-0.152-1.939-0.065l-8.724 0.052c-0.141-0.043-0.343-0.039-0.606 0.013s-0.394 0.078-0.394 0.078l-0.152 0.065-0.12 0.078c-0.101 0.052-0.212 0.143-0.333 0.273s-0.221 0.282-0.302 0.456c-0.95 2.101-2.030 4.055-3.242 5.861-0.747 1.077-1.434 2.010-2.060 2.8s-1.151 1.372-1.575 1.745c-0.424 0.373-0.807 0.673-1.151 0.899s-0.605 0.322-0.787 0.287-0.353-0.070-0.516-0.104c-0.282-0.156-0.51-0.369-0.681-0.638s-0.288-0.608-0.349-1.016c-0.060-0.408-0.096-0.76-0.106-1.055s-0.005-0.712 0.015-1.25c0.021-0.539 0.030-0.903 0.030-1.094 0-0.66 0.015-1.376 0.045-2.149s0.055-1.385 0.076-1.836c0.021-0.452 0.030-0.929 0.030-1.433s-0.036-0.899-0.106-1.185c-0.070-0.286-0.176-0.564-0.317-0.834s-0.349-0.477-0.621-0.625c-0.273-0.148-0.611-0.265-1.015-0.352-1.071-0.208-2.434-0.321-4.090-0.338-3.756-0.035-6.17 0.174-7.24 0.625-0.424 0.191-0.808 0.451-1.151 0.781-0.364 0.382-0.414 0.591-0.152 0.625 1.212 0.156 2.070 0.53 2.575 1.12l0.182 0.313c0.142 0.226 0.283 0.625 0.424 1.198s0.232 1.207 0.272 1.901c0.101 1.268 0.101 2.353 0 3.256s-0.197 1.606-0.288 2.11-0.227 0.912-0.409 1.224c-0.182 0.313-0.303 0.504-0.364 0.573s-0.111 0.113-0.151 0.13c-0.263 0.086-0.535 0.131-0.818 0.131s-0.626-0.122-1.030-0.365c-0.404-0.243-0.823-0.577-1.257-1.003s-0.924-1.020-1.47-1.784c-0.545-0.764-1.111-1.667-1.696-2.709l-0.485-0.756c-0.303-0.486-0.717-1.194-1.242-2.123s-0.99-1.828-1.394-2.696c-0.161-0.365-0.404-0.642-0.727-0.833l-0.152-0.078c-0.101-0.069-0.263-0.143-0.485-0.221s-0.454-0.135-0.697-0.169l-8.3 0.052c-0.848 0-1.424 0.165-1.727 0.495l-0.121 0.156c-0.061 0.087-0.091 0.226-0.091 0.417s0.061 0.425 0.182 0.703c1.212 2.449 2.529 4.81 3.953 7.085s2.661 4.107 3.711 5.495c1.050 1.389 2.12 2.701 3.211 3.933s1.813 2.023 2.166 2.37c0.354 0.348 0.631 0.608 0.833 0.781l0.757 0.625c0.485 0.417 1.196 0.916 2.136 1.498s1.979 1.155 3.12 1.72c1.141 0.564 2.469 1.024 3.984 1.38s2.989 0.499 4.423 0.43h3.484c0.706-0.052 1.242-0.244 1.606-0.573l0.12-0.131c0.081-0.104 0.157-0.265 0.227-0.481 0.071-0.217 0.106-0.456 0.106-0.716-0.021-0.747 0.045-1.419 0.197-2.018s0.323-1.050 0.516-1.354c0.192-0.304 0.409-0.56 0.651-0.768s0.415-0.334 0.516-0.378c0.101-0.044 0.181-0.073 0.241-0.091 0.485-0.139 1.055-0.004 1.712 0.404s1.272 0.912 1.848 1.511c0.576 0.599 1.267 1.272 2.075 2.018s1.515 1.302 2.12 1.667l0.606 0.313c0.405 0.209 0.93 0.4 1.576 0.573 0.645 0.174 1.21 0.217 1.696 0.13l7.755-0.104c0.767 0 1.364-0.109 1.787-0.326 0.424-0.217 0.676-0.456 0.758-0.716s0.086-0.556 0.015-0.886c-0.072-0.329-0.143-0.56-0.213-0.69z"></path>
</symbol>
<symbol id="call-1" viewBox="0 0 32 32">
<path d="M22 20c-2 2-2 4-4 4s-4-2-6-4-4-4-4-6 2-2 4-4-4-8-6-8-6 6-6 6c0 4 4.109 12.109 8 16s12 8 16 8c0 0 6-4 6-6s-6-8-8-6z"></path>
</symbol>
<symbol id="call-2" viewBox="0 0 32 32">
<path d="M27.281 4.65c-2.994-3-6.975-4.65-11.219-4.65-8.738 0-15.85 7.112-15.85 15.856 0 2.794 0.731 5.525 2.119 7.925l-2.25 8.219 8.406-2.206c2.319 1.262 4.925 1.931 7.575 1.931h0.006c0 0 0 0 0 0 8.738 0 15.856-7.113 15.856-15.856 0-4.238-1.65-8.219-4.644-11.219zM16.069 29.050v0c-2.369 0-4.688-0.637-6.713-1.837l-0.481-0.288-4.987 1.306 1.331-4.863-0.313-0.5c-1.325-2.094-2.019-4.519-2.019-7.012 0-7.269 5.912-13.181 13.188-13.181 3.519 0 6.831 1.375 9.319 3.862 2.488 2.494 3.856 5.8 3.856 9.325-0.006 7.275-5.919 13.188-13.181 13.188zM23.294 19.175c-0.394-0.2-2.344-1.156-2.706-1.288s-0.625-0.2-0.894 0.2c-0.262 0.394-1.025 1.288-1.256 1.556-0.231 0.262-0.462 0.3-0.856 0.1s-1.675-0.619-3.188-1.969c-1.175-1.050-1.975-2.35-2.206-2.744s-0.025-0.613 0.175-0.806c0.181-0.175 0.394-0.463 0.594-0.694s0.262-0.394 0.394-0.662c0.131-0.262 0.069-0.494-0.031-0.694s-0.894-2.15-1.219-2.944c-0.319-0.775-0.65-0.669-0.894-0.681-0.231-0.012-0.494-0.012-0.756-0.012s-0.694 0.1-1.056 0.494c-0.363 0.394-1.387 1.356-1.387 3.306s1.419 3.831 1.619 4.1c0.2 0.262 2.794 4.269 6.769 5.981 0.944 0.406 1.681 0.65 2.256 0.837 0.95 0.3 1.813 0.256 2.494 0.156 0.762-0.113 2.344-0.956 2.675-1.881s0.331-1.719 0.231-1.881c-0.094-0.175-0.356-0.275-0.756-0.475z"></path>
</symbol>
</defs>
</svg>
