<svg width="19" height="19" viewBox="0 0 19 19" fill="none" xmlns="http://www.w3.org/2000/svg">
<path d="M2.78513 2.78385C6.49693 -0.92795 12.5108 -0.92795 16.2187 2.78385C19.7883 6.35349 19.9226 12.0633 16.6175 15.7949L16.5188 15.8739C16.8781 16.6478 17.4941 17.6034 18.4734 18.0851C18.7972 18.2431 18.7222 18.7248 18.3668 18.7801C17.2967 18.946 15.7606 18.7604 14.3273 17.6784L14.3075 17.6942C10.6668 19.8344 5.90462 19.3448 2.77723 16.2174C-0.926676 12.5096 -0.926676 6.4917 2.78513 2.78385ZM6.37057 13.5639C6.57985 13.7771 6.80098 13.9745 6.99842 14.1957C7.28667 14.5195 7.64996 14.6221 8.06062 14.5984C8.66083 14.5668 9.2176 14.3655 9.75068 14.1048C10.9392 13.5283 11.9541 12.7267 12.803 11.7159C13.4309 10.9696 13.9482 10.1561 14.2917 9.23606C14.4576 8.78986 14.576 8.33575 14.5405 7.85401C14.5168 7.55785 14.4062 7.30514 14.189 7.09585C13.9521 6.87078 13.731 6.6378 13.498 6.40878C13.194 6.10867 12.8149 6.11262 12.5108 6.40878C12.3213 6.59437 12.1397 6.77996 11.9541 6.96555C11.7724 7.14719 11.5908 7.32488 11.4131 7.50652C11.0972 7.82637 11.0972 8.19755 11.4131 8.51739C11.6382 8.74642 11.8632 8.97544 12.0962 9.19657C12.1555 9.2558 12.1633 9.30319 12.1318 9.37821C11.9817 9.7415 11.7606 10.0653 11.5158 10.3654C11.0222 10.9735 10.4614 11.5145 9.79016 11.933C9.64801 12.0239 9.49006 12.087 9.34001 12.17C9.26498 12.2134 9.2097 12.1976 9.15047 12.1344C8.92539 11.9014 8.69242 11.6724 8.46339 11.4434C8.15934 11.1433 7.78026 11.1433 7.48016 11.4434C7.10898 11.8106 6.74175 12.1779 6.37452 12.549C6.05862 12.8728 6.05862 13.2519 6.37057 13.5639ZM9.87309 7.42755L9.75463 6.58252C8.93724 6.69703 8.19488 7.06821 7.61047 7.65262C7.0537 8.20939 6.69042 8.90832 6.56011 9.67832L7.40119 9.82442C7.50385 9.22816 7.78421 8.68719 8.21462 8.25678C8.66873 7.80267 9.24129 7.51442 9.87309 7.42755ZM5.18595 9.67832C5.37549 8.57268 5.89672 7.5697 6.69042 6.77206C7.52754 5.93493 8.58975 5.4058 9.76252 5.23995L9.64406 4.39493C8.28965 4.58447 7.05765 5.19652 6.09021 6.1679C5.17016 7.08796 4.566 8.25283 4.34487 9.53222L5.18595 9.67832Z" fill="#27ACE2"/>
</svg>
