<svg width="16" height="15" viewBox="0 0 16 15" fill="none" xmlns="http://www.w3.org/2000/svg">
<g clip-path="url(#clip0_124_36)">
<path d="M11.3659 0.856079H4.63407C3.98981 0.856079 3.46973 1.30527 3.46973 1.85824V13.6125C3.46973 14.165 3.98981 14.6137 4.63407 14.6137H11.3659C12.009 14.6137 12.5303 14.165 12.5303 13.6125V1.85824C12.5303 1.30527 12.009 0.856079 11.3659 0.856079ZM6.33891 1.4647H9.66228C9.74624 1.4647 9.81445 1.57248 9.81445 1.70584C9.81445 1.83919 9.74624 1.94748 9.66228 1.94748H6.33891C6.25436 1.94748 6.18731 1.83919 6.18731 1.70584C6.18731 1.57248 6.25436 1.4647 6.33891 1.4647ZM8.00059 13.6245C7.59071 13.6245 7.25721 13.3378 7.25721 12.9848C7.25721 12.6319 7.59071 12.3461 8.00059 12.3461C8.40931 12.3461 8.74281 12.6319 8.74281 12.9848C8.74281 13.3378 8.40931 13.6245 8.00059 13.6245ZM11.6581 11.4342H4.34255V2.54707H11.6581V11.4342Z" fill="#27ACE2"/>
</g>
<defs>
<clipPath id="clip0_124_36">
<rect width="16" height="13.7576" fill="white" transform="translate(0 0.856079)"/>
</clipPath>
</defs>
</svg>
