<svg width="24" height="22" viewBox="0 0 24 22" fill="none" xmlns="http://www.w3.org/2000/svg">
<path d="M17.4057 2.56425L14.8122 2.56067C11.8985 2.56067 10.0155 4.22179 10.0155 6.79282V8.74413H7.40781C7.18247 8.74413 7 8.90121 7 9.09496V11.9222C7 12.1159 7.18268 12.2728 7.40781 12.2728H10.0155V19.4068C10.0155 19.6006 10.198 19.7575 10.4233 19.7575H13.8256C14.0509 19.7575 14.2334 19.6004 14.2334 19.4068V12.2728H17.2823C17.5077 12.2728 17.6902 12.1159 17.6902 11.9222L17.6914 9.09496C17.6914 9.00193 17.6483 8.91284 17.572 8.847C17.4956 8.78116 17.3916 8.74413 17.2834 8.74413H14.2334V7.08998C14.2334 6.29493 14.4537 5.89133 15.6582 5.89133L17.4053 5.89079C17.6304 5.89079 17.8129 5.73371 17.8129 5.54014V2.9149C17.8129 2.7215 17.6306 2.5646 17.4057 2.56425Z" fill="#27ACE2"/>
</svg>
