<svg width="24" height="22" viewBox="0 0 24 22" fill="none" xmlns="http://www.w3.org/2000/svg">
<g clip-path="url(#clip0_57_133)">
<g clip-path="url(#clip1_57_133)">
<path d="M15.75 1.84094H8.25C4.79875 1.84094 2 4.63969 2 8.09094V15.5909C2 19.0422 4.79875 21.8409 8.25 21.8409H15.75C19.2013 21.8409 22 19.0422 22 15.5909V8.09094C22 4.63969 19.2013 1.84094 15.75 1.84094ZM20.125 15.5909C20.125 18.0034 18.1625 19.9659 15.75 19.9659H8.25C5.8375 19.9659 3.875 18.0034 3.875 15.5909V8.09094C3.875 5.67844 5.8375 3.71594 8.25 3.71594H15.75C18.1625 3.71594 20.125 5.67844 20.125 8.09094V15.5909Z" fill="#27ACE2"/>
<path d="M12 6.84094C9.23875 6.84094 7 9.07969 7 11.8409C7 14.6022 9.23875 16.8409 12 16.8409C14.7613 16.8409 17 14.6022 17 11.8409C17 9.07969 14.7613 6.84094 12 6.84094ZM12 14.9659C10.2775 14.9659 8.875 13.5634 8.875 11.8409C8.875 10.1172 10.2775 8.71594 12 8.71594C13.7225 8.71594 15.125 10.1172 15.125 11.8409C15.125 13.5634 13.7225 14.9659 12 14.9659Z" fill="#27ACE2"/>
<path d="M17.375 7.13217C17.743 7.13217 18.0412 6.83389 18.0412 6.46593C18.0412 6.09797 17.743 5.79968 17.375 5.79968C17.007 5.79968 16.7087 6.09797 16.7087 6.46593C16.7087 6.83389 17.007 7.13217 17.375 7.13217Z" fill="#27ACE2"/>
</g>
</g>
<defs>
<clipPath id="clip0_57_133">
<rect width="24" height="20.6364" fill="white" transform="translate(0 0.840942)"/>
</clipPath>
<clipPath id="clip1_57_133">
<rect width="20" height="20" fill="white" transform="translate(2 1.84094)"/>
</clipPath>
</defs>
</svg>
