<svg width="24" height="22" viewBox="0 0 24 22" fill="none" xmlns="http://www.w3.org/2000/svg">
<path d="M22 5.93313C21.2639 6.21359 20.474 6.4038 19.6441 6.48871C20.4915 6.05241 21.1401 5.36037 21.4475 4.53829C20.6527 4.94234 19.7754 5.23572 18.8405 5.39477C18.0919 4.7081 17.0271 4.2804 15.8461 4.2804C13.5803 4.2804 11.7431 5.86007 11.7431 7.80726C11.7431 8.08342 11.7793 8.35315 11.8493 8.61107C8.44 8.46383 5.41683 7.05933 3.39346 4.92514C3.03977 5.44526 2.83856 6.05132 2.83856 6.69825C2.83856 7.92224 3.56343 9.00222 4.66324 9.63407C3.99085 9.61474 3.35846 9.45569 2.80484 9.19133V9.23539C2.80484 10.944 4.21957 12.37 6.09546 12.6946C5.75176 12.7741 5.38935 12.8181 5.01441 12.8181C4.74948 12.8181 4.49327 12.7956 4.24206 12.7526C4.76444 14.155 6.27918 15.1747 8.07386 15.2027C6.67036 16.1484 4.90069 16.7104 2.97856 16.7104C2.64739 16.7104 2.32118 16.6932 2 16.662C3.81591 17.6646 5.97176 18.2492 8.28882 18.2492C15.8361 18.2492 19.9616 12.874 19.9616 8.2124L19.9479 7.7557C20.754 7.26134 21.4513 6.64023 22 5.93313Z" fill="#27ACE2"/>
</svg>
