<svg width="24" height="22" viewBox="0 0 24 22" fill="none" xmlns="http://www.w3.org/2000/svg">
<path d="M21.894 15.1144C21.8698 15.0695 21.8472 15.0323 21.8262 15.0025C21.4792 14.4651 20.8161 13.8055 19.8373 13.0236L19.8166 13.0056L19.8063 12.9969L19.7958 12.9879H19.7853C19.341 12.6237 19.0597 12.3789 18.9419 12.2536C18.7264 12.0148 18.6781 11.7731 18.7959 11.5282C18.8791 11.3431 19.1918 10.9524 19.7331 10.3554C20.0178 10.039 20.2433 9.78539 20.4099 9.59434C21.611 8.22136 22.1317 7.34401 21.9719 6.96194L21.9099 6.87266C21.8682 6.81891 21.7606 6.76973 21.5872 6.72489C21.4135 6.68013 21.1914 6.67273 20.9206 6.70256L17.9217 6.72037C17.8731 6.70557 17.8037 6.70695 17.7134 6.72489C17.6231 6.74282 17.5779 6.75182 17.5779 6.75182L17.5257 6.77425L17.4843 6.80119C17.4496 6.819 17.4114 6.85033 17.3697 6.89511C17.3282 6.93974 17.2936 6.99211 17.2658 7.05179C16.9393 7.77406 16.5681 8.44559 16.1515 9.06635C15.8946 9.4365 15.6587 9.75729 15.4433 10.0289C15.2281 10.3004 15.0476 10.5005 14.9019 10.6287C14.756 10.7571 14.6244 10.8599 14.5061 10.9376C14.3881 11.0153 14.298 11.0481 14.2355 11.0361C14.173 11.0241 14.1141 11.0122 14.0583 11.0003C13.9612 10.9465 13.8831 10.8734 13.8242 10.7809C13.765 10.6884 13.7252 10.572 13.7044 10.4317C13.6836 10.2913 13.6714 10.1706 13.6679 10.069C13.6646 9.96766 13.6661 9.82425 13.6732 9.63922C13.6804 9.45409 13.6836 9.32884 13.6836 9.26317C13.6836 9.03631 13.6888 8.79009 13.6991 8.52446C13.7096 8.25884 13.7181 8.04838 13.7252 7.89333C13.7323 7.73812 13.7356 7.57392 13.7356 7.40081C13.7356 7.22769 13.7233 7.09193 13.6991 6.9934C13.6752 6.89499 13.6385 6.79946 13.5901 6.70685C13.5414 6.61434 13.4701 6.54277 13.3766 6.49197C13.2829 6.44123 13.1664 6.40096 13.0278 6.37104C12.6598 6.29944 12.1912 6.26071 11.6219 6.25469C10.3307 6.24277 9.50105 6.31447 9.13311 6.46967C8.98733 6.53525 8.85541 6.62484 8.73746 6.73818C8.61247 6.86955 8.59504 6.94124 8.68527 6.95304C9.10186 7.00669 9.39677 7.13505 9.57035 7.33799L9.6329 7.44553C9.68155 7.52311 9.73013 7.66047 9.77875 7.85742C9.8273 8.05437 9.85863 8.27223 9.87241 8.51089C9.90706 8.94671 9.90706 9.31978 9.87241 9.63012C9.83765 9.9406 9.80483 10.1823 9.7735 10.3554C9.74217 10.5285 9.69534 10.6688 9.6329 10.7762C9.57035 10.8836 9.52873 10.9493 9.50787 10.9732C9.48704 10.997 9.46968 11.012 9.4559 11.0179C9.36566 11.0476 9.27182 11.0628 9.17469 11.0628C9.07742 11.0628 8.95947 11.0209 8.82065 10.9373C8.68188 10.8537 8.53785 10.7389 8.38856 10.5926C8.23928 10.4463 8.07093 10.2419 7.88342 9.97926C7.69606 9.71665 7.50166 9.40627 7.30033 9.04813L7.13376 8.7884C7.02963 8.62131 6.88739 8.37801 6.70689 8.05872C6.52628 7.73931 6.36664 7.43035 6.22786 7.13189C6.17238 7.00654 6.08904 6.91111 5.97799 6.84544L5.92587 6.8185C5.89122 6.79466 5.8356 6.76935 5.7593 6.74238C5.68289 6.71545 5.60316 6.69613 5.51978 6.68424L2.66657 6.70205C2.37501 6.70205 2.17718 6.75885 2.07302 6.87228L2.03133 6.92594C2.0105 6.95583 2 7.00356 2 7.06926C2 7.13493 2.02083 7.21553 2.06251 7.31096C2.47903 8.15268 2.93198 8.96446 3.42137 9.74641C3.91076 10.5284 4.33603 11.1582 4.69692 11.6355C5.05789 12.1131 5.42583 12.5638 5.80073 12.9875C6.17563 13.4114 6.42379 13.683 6.54521 13.8023C6.66677 13.9219 6.76225 14.0112 6.83166 14.0709L7.09204 14.2858C7.25865 14.4291 7.5033 14.6007 7.82612 14.8006C8.14901 15.0006 8.50648 15.1976 8.89871 15.3917C9.291 15.5856 9.74739 15.7438 10.2681 15.8661C10.7887 15.9886 11.2955 16.0377 11.7884 16.014H12.986C13.2288 15.996 13.4128 15.9303 13.5379 15.817L13.5793 15.7721C13.6072 15.7365 13.6333 15.6811 13.6573 15.6066C13.6817 15.532 13.6938 15.4498 13.6938 15.3604C13.6867 15.1038 13.7094 14.8725 13.7614 14.6666C13.8133 14.4607 13.8724 14.3055 13.9386 14.201C14.0047 14.0966 14.0793 14.0084 14.1624 13.937C14.2456 13.8654 14.3049 13.822 14.3397 13.8071C14.3743 13.7921 14.4019 13.7819 14.4227 13.7758C14.5893 13.728 14.7854 13.7743 15.0112 13.9147C15.2369 14.055 15.4486 14.2282 15.6465 14.434C15.8444 14.64 16.0821 14.8712 16.3597 15.1278C16.6376 15.3846 16.8805 15.5754 17.0886 15.7009L17.2968 15.8084C17.4359 15.8801 17.6164 15.9457 17.8386 16.0054C18.0604 16.0651 18.2547 16.08 18.4215 16.0502L21.0872 16.0144C21.3509 16.0144 21.556 15.9769 21.7015 15.9024C21.8474 15.8278 21.934 15.7456 21.9619 15.6562C21.9898 15.5667 21.9913 15.4651 21.9672 15.3516C21.9425 15.2384 21.9182 15.1592 21.894 15.1144Z" fill="#27ACE2"/>
</svg>
