<svg width="36" height="36" viewBox="0 0 36 36" fill="none" xmlns="http://www.w3.org/2000/svg">
<path d="M18 0C8.0595 0 0 8.0595 0 18C0 27.9405 8.0595 36 18 36C27.9405 36 36 27.9405 36 18C36 8.0595 27.9405 0 18 0ZM18 29.49C16.593 29.49 15.63 28.4055 15.63 27C15.63 25.554 16.6335 24.51 18 24.51C19.4445 24.51 20.37 25.554 20.37 27C20.37 28.407 19.4445 29.49 18 29.49ZM18.933 19.9815C18.5745 21.204 17.445 21.225 17.0685 19.9815C16.635 18.5475 15.0945 13.104 15.0945 9.5685C15.0945 4.9035 20.931 4.881 20.931 9.5685C20.9295 13.125 19.3065 18.7095 18.933 19.9815Z" fill="#ACEBA4"/>
</svg>
