<svg width="11" height="18" viewBox="0 0 11 18" fill="none" xmlns="http://www.w3.org/2000/svg">
<path d="M10.4057 0.564247L7.8122 0.560669C4.89847 0.560669 3.01548 2.22179 3.01548 4.79282V6.74413H0.407807C0.182473 6.74413 0 6.90121 0 7.09496V9.92218C0 10.1159 0.182681 10.2728 0.407807 10.2728H3.01548V17.4068C3.01548 17.6006 3.19795 17.7575 3.42329 17.7575H6.82556C7.0509 17.7575 7.23337 17.6004 7.23337 17.4068V10.2728H10.2823C10.5077 10.2728 10.6902 10.1159 10.6902 9.92218L10.6914 7.09496C10.6914 7.00193 10.6483 6.91284 10.572 6.847C10.4956 6.78116 10.3916 6.74413 10.2834 6.74413H7.23337V5.08998C7.23337 4.29493 7.45371 3.89133 8.65819 3.89133L10.4053 3.89079C10.6304 3.89079 10.8129 3.73371 10.8129 3.54014V0.914899C10.8129 0.721504 10.6306 0.564605 10.4057 0.564247Z" fill="#27ACE2"/>
</svg>
