<svg width="20" height="21" viewBox="0 0 20 21" fill="none" xmlns="http://www.w3.org/2000/svg">
<g clip-path="url(#clip0_57_134)">
<path d="M13.75 0.840942H6.25C2.79875 0.840942 0 3.63969 0 7.09094V14.5909C0 18.0422 2.79875 20.8409 6.25 20.8409H13.75C17.2013 20.8409 20 18.0422 20 14.5909V7.09094C20 3.63969 17.2013 0.840942 13.75 0.840942ZM18.125 14.5909C18.125 17.0034 16.1625 18.9659 13.75 18.9659H6.25C3.8375 18.9659 1.875 17.0034 1.875 14.5909V7.09094C1.875 4.67844 3.8375 2.71594 6.25 2.71594H13.75C16.1625 2.71594 18.125 4.67844 18.125 7.09094V14.5909Z" fill="#27ACE2"/>
<path d="M10 5.84094C7.23875 5.84094 5 8.07969 5 10.8409C5 13.6022 7.23875 15.8409 10 15.8409C12.7613 15.8409 15 13.6022 15 10.8409C15 8.07969 12.7613 5.84094 10 5.84094ZM10 13.9659C8.2775 13.9659 6.875 12.5634 6.875 10.8409C6.875 9.11719 8.2775 7.71594 10 7.71594C11.7225 7.71594 13.125 9.11719 13.125 10.8409C13.125 12.5634 11.7225 13.9659 10 13.9659Z" fill="#27ACE2"/>
<path d="M15.375 6.13217C15.743 6.13217 16.0412 5.83389 16.0412 5.46593C16.0412 5.09797 15.743 4.79968 15.375 4.79968C15.007 4.79968 14.7087 5.09797 14.7087 5.46593C14.7087 5.83389 15.007 6.13217 15.375 6.13217Z" fill="#27ACE2"/>
</g>
<defs>
<clipPath id="clip0_57_134">
<rect width="20" height="20" fill="white" transform="translate(0 0.840942)"/>
</clipPath>
</defs>
</svg>
