<svg width="10" height="15" viewBox="0 0 10 15" fill="none" xmlns="http://www.w3.org/2000/svg">
<path d="M8.36594 0.856079H1.63407C0.989805 0.856079 0.469727 1.30527 0.469727 1.85824V13.6125C0.469727 14.165 0.989805 14.6137 1.63407 14.6137H8.36594C9.00905 14.6137 9.53029 14.165 9.53029 13.6125V1.85824C9.53029 1.30527 9.00905 0.856079 8.36594 0.856079ZM3.33891 1.4647H6.66228C6.74624 1.4647 6.81445 1.57248 6.81445 1.70584C6.81445 1.83919 6.74624 1.94748 6.66228 1.94748H3.33891C3.25436 1.94748 3.18731 1.83919 3.18731 1.70584C3.18731 1.57248 3.25436 1.4647 3.33891 1.4647ZM5.00059 13.6245C4.59071 13.6245 4.25721 13.3378 4.25721 12.9848C4.25721 12.6319 4.59071 12.3461 5.00059 12.3461C5.40931 12.3461 5.74281 12.6319 5.74281 12.9848C5.74281 13.3378 5.40931 13.6245 5.00059 13.6245ZM8.65805 11.4342H1.34255V2.54707H8.65805V11.4342Z" fill="#27ACE2"/>
</svg>
