<svg width="10" height="14" viewBox="0 0 10 14" fill="none" xmlns="http://www.w3.org/2000/svg">
<path fill-rule="evenodd" clip-rule="evenodd" d="M9.53033 4.46967L5.53033 0.469666C5.45671 0.396041 5.37158 0.340923 5.28074 0.304313C5.20218 0.272653 5.11935 0.254833 5.03598 0.250854C5.02399 0.250281 5.012 0.25 5 0.25C4.99222 0.25 4.98444 0.250116 4.97667 0.250357C4.88508 0.253156 4.79762 0.272375 4.71714 0.305171C4.62709 0.341783 4.54272 0.396614 4.46967 0.469666L0.46967 4.46967C0.176777 4.76256 0.176777 5.23743 0.46967 5.53033C0.762563 5.82322 1.23744 5.82322 1.53033 5.53033L4.25 2.81066L4.25 13C4.25 13.4142 4.58579 13.75 5 13.75C5.41421 13.75 5.75 13.4142 5.75 13L5.75 2.81065L8.46967 5.53033C8.76256 5.82322 9.23744 5.82322 9.53033 5.53033C9.82323 5.23743 9.82323 4.76256 9.53033 4.46967Z" fill="#374561" fill-opacity="0.3"/>
</svg>
