<svg width="20" height="15" viewBox="0 0 20 15" fill="none" xmlns="http://www.w3.org/2000/svg">
<path d="M20 1.93313C19.2639 2.21359 18.474 2.4038 17.6441 2.48871C18.4915 2.05241 19.1401 1.36037 19.4475 0.538293C18.6527 0.942337 17.7754 1.23572 16.8405 1.39477C16.0919 0.708099 15.0271 0.280396 13.8461 0.280396C11.5803 0.280396 9.7431 1.86007 9.7431 3.80726C9.7431 4.08342 9.77935 4.35315 9.84935 4.61107C6.44 4.46383 3.41683 3.05933 1.39346 0.92514C1.03977 1.44526 0.838562 2.05132 0.838562 2.69825C0.838562 3.92224 1.56343 5.00222 2.66324 5.63407C1.99085 5.61474 1.35846 5.45569 0.804837 5.19133V5.23539C0.804837 6.94401 2.21957 8.37001 4.09546 8.69456C3.75176 8.77408 3.38935 8.81814 3.01441 8.81814C2.74948 8.81814 2.49327 8.79558 2.24206 8.75259C2.76444 10.155 4.27918 11.1747 6.07386 11.2027C4.67036 12.1484 2.90069 12.7104 0.978562 12.7104C0.647386 12.7104 0.321176 12.6932 0 12.662C1.81591 13.6646 3.97176 14.2492 6.28882 14.2492C13.8361 14.2492 17.9616 8.87403 17.9616 4.2124L17.9479 3.7557C18.754 3.26134 19.4513 2.64023 20 1.93313Z" fill="#27ACE2"/>
</svg>
