<svg width="20" height="11" viewBox="0 0 20 11" fill="none" xmlns="http://www.w3.org/2000/svg">
<path d="M19.894 9.11441C19.8698 9.06954 19.8472 9.03231 19.8262 9.00249C19.4792 8.46512 18.8161 7.80554 17.8373 7.02356L17.8166 7.00565L17.8063 6.99687L17.7958 6.98787H17.7853C17.341 6.62374 17.0597 6.3789 16.9419 6.25355C16.7264 6.01477 16.6781 5.77307 16.7959 5.52818C16.8791 5.34315 17.1918 4.95239 17.7331 4.35537C18.0178 4.03897 18.2433 3.78539 18.4099 3.59434C19.611 2.22136 20.1317 1.34401 19.9719 0.961942L19.9099 0.872658C19.8682 0.818905 19.7606 0.769731 19.5872 0.724885C19.4135 0.680133 19.1914 0.672732 18.9206 0.702556L15.9217 0.720369C15.8731 0.705567 15.8037 0.706947 15.7134 0.724885C15.6231 0.742823 15.5779 0.751824 15.5779 0.751824L15.5257 0.774247L15.4843 0.801186C15.4496 0.818999 15.4114 0.850329 15.3697 0.895112C15.3282 0.939739 15.2936 0.992111 15.2658 1.05179C14.9393 1.77406 14.5681 2.44559 14.1515 3.06635C13.8946 3.4365 13.6587 3.75729 13.4433 4.02891C13.2281 4.30043 13.0476 4.50048 12.9019 4.62872C12.756 4.75707 12.6244 4.85991 12.5061 4.93759C12.3881 5.0153 12.298 5.04813 12.2355 5.03612C12.173 5.02411 12.1141 5.0122 12.0583 5.00028C11.9612 4.94653 11.8831 4.87342 11.8242 4.78091C11.765 4.68839 11.7252 4.57195 11.7044 4.43167C11.6836 4.2913 11.6714 4.17056 11.6679 4.06905C11.6646 3.96766 11.6661 3.82425 11.6732 3.63922C11.6804 3.45409 11.6836 3.32884 11.6836 3.26317C11.6836 3.03631 11.6888 2.79009 11.6991 2.52446C11.7096 2.25884 11.7181 2.04838 11.7252 1.89333C11.7323 1.73812 11.7356 1.57392 11.7356 1.40081C11.7356 1.22769 11.7233 1.09193 11.6991 0.993397C11.6752 0.894986 11.6385 0.799461 11.5901 0.706853C11.5414 0.614338 11.4701 0.542773 11.3766 0.491968C11.2829 0.441226 11.1664 0.400959 11.0278 0.371041C10.6598 0.299444 10.1912 0.260713 9.62185 0.254692C8.33069 0.242775 7.50105 0.314466 7.13311 0.46967C6.98733 0.535246 6.85541 0.624844 6.73746 0.738182C6.61247 0.869553 6.59504 0.941244 6.68527 0.953036C7.10186 1.00669 7.39677 1.13505 7.57035 1.33799L7.6329 1.44553C7.68155 1.52311 7.73013 1.66047 7.77875 1.85742C7.8273 2.05437 7.85863 2.27223 7.87241 2.51089C7.90706 2.94671 7.90706 3.31978 7.87241 3.63012C7.83765 3.9406 7.80483 4.18229 7.7735 4.35541C7.74217 4.52852 7.69534 4.66879 7.6329 4.77621C7.57035 4.88365 7.52873 4.94932 7.50787 4.97315C7.48704 4.99699 7.46968 5.01201 7.4559 5.0179C7.36566 5.04763 7.27182 5.06278 7.17469 5.06278C7.07742 5.06278 6.95947 5.02095 6.82065 4.93734C6.68188 4.85373 6.53785 4.73889 6.38856 4.59262C6.23928 4.44632 6.07093 4.24188 5.88342 3.97926C5.69606 3.71665 5.50166 3.40627 5.30033 3.04813L5.13376 2.7884C5.02963 2.62131 4.88739 2.37801 4.70689 2.05872C4.52628 1.73931 4.36664 1.43035 4.22786 1.13189C4.17238 1.00654 4.08904 0.911106 3.97799 0.845437L3.92587 0.818497C3.89122 0.794663 3.8356 0.769355 3.7593 0.742384C3.68289 0.715445 3.60316 0.696127 3.51978 0.684241L0.666572 0.702054C0.375011 0.702054 0.177184 0.758849 0.073018 0.872281L0.0313299 0.925939C0.0105041 0.955826 0 1.00356 0 1.06926C0 1.13493 0.0208258 1.21553 0.0625139 1.31096C0.47903 2.15268 0.931983 2.96446 1.42137 3.74641C1.91076 4.52836 2.33603 5.15824 2.69692 5.63549C3.05789 6.11309 3.42583 6.56384 3.80073 6.98752C4.17563 7.41136 4.42379 7.68298 4.54521 7.80231C4.66677 7.92186 4.76225 8.01123 4.83166 8.07091L5.09204 8.28577C5.25865 8.42905 5.5033 8.60066 5.82612 8.80059C6.14901 9.00064 6.50648 9.19758 6.89871 9.39174C7.291 9.58558 7.74739 9.74376 8.2681 9.8661C8.78875 9.98857 9.2955 10.0377 9.78842 10.014H10.986C11.2288 9.99597 11.4128 9.9303 11.5379 9.81696L11.5793 9.77208C11.6072 9.73646 11.6333 9.6811 11.6573 9.60662C11.6817 9.53202 11.6938 9.44982 11.6938 9.36041C11.6867 9.10378 11.7094 8.8725 11.7614 8.66658C11.8133 8.46073 11.8724 8.30552 11.9386 8.201C12.0047 8.09657 12.0793 8.00844 12.1624 7.937C12.2456 7.86541 12.3049 7.82203 12.3397 7.80711C12.3743 7.79208 12.4019 7.78189 12.4227 7.77578C12.5893 7.72804 12.7854 7.77427 13.0112 7.91467C13.2369 8.05495 13.4486 8.22816 13.6465 8.43401C13.8444 8.64005 14.0821 8.87121 14.3597 9.12784C14.6376 9.38456 14.8805 9.57539 15.0886 9.70092L15.2968 9.80837C15.4359 9.88006 15.6164 9.94573 15.8386 10.0054C16.0604 10.0651 16.2547 10.08 16.4215 10.0502L19.0872 10.0144C19.3509 10.0144 19.556 9.97687 19.7015 9.90239C19.8474 9.82778 19.934 9.74558 19.9619 9.65617C19.9898 9.56667 19.9913 9.46512 19.9672 9.3516C19.9425 9.23835 19.9182 9.15917 19.894 9.11441Z" fill="#27ACE2"/>
</svg>
